<svg width="24" height="24" viewBox="0 0 24 24" fill="none" xmlns="http://www.w3.org/2000/svg">
<path d="M14.3502 14.3878C14.9927 13.7312 15.3139 12.9338 15.3139 11.9958C15.3139 11.0578 14.9913 10.2619 14.3461 9.60808C13.701 8.95423 12.9176 8.62731 11.9959 8.62731C11.0743 8.62731 10.2922 8.95562 9.64978 9.61223C9.00733 10.2688 8.68611 11.0662 8.68611 12.0042C8.68611 12.9422 9.00869 13.7381 9.65386 14.3919C10.299 15.0458 11.0824 15.3727 12.0041 15.3727C12.9257 15.3727 13.7078 15.0444 14.3502 14.3878ZM10.2654 13.7654C9.78923 13.2808 9.55114 12.6923 9.55114 12C9.55114 11.3077 9.78923 10.7192 10.2654 10.2346C10.7416 9.75 11.3198 9.50769 12 9.50769C12.6802 9.50769 13.2584 9.75 13.7346 10.2346C14.2108 10.7192 14.4489 11.3077 14.4489 12C14.4489 12.6923 14.2108 13.2808 13.7346 13.7654C13.2584 14.25 12.6802 14.4923 12 14.4923C11.3198 14.4923 10.7416 14.25 10.2654 13.7654ZM6.63134 16.3678C5.01509 15.2796 3.80465 13.8237 3 12C3.80465 10.1763 5.01426 8.72038 6.62884 7.63223C8.24342 6.54408 10.033 6 11.9975 6C13.962 6 15.7524 6.54408 17.3687 7.63223C18.9849 8.72038 20.1954 10.1763 21 12C20.1954 13.8237 18.9857 15.2796 17.3712 16.3678C15.7566 17.4559 13.967 18 12.0025 18C10.038 18 8.24758 17.4559 6.63134 16.3678ZM16.705 15.7038C18.1335 14.7885 19.2256 13.5538 19.9815 12C19.2256 10.4462 18.1335 9.21154 16.705 8.29615C15.2765 7.38077 13.7082 6.92308 12 6.92308C10.2918 6.92308 8.72352 7.38077 7.29502 8.29615C5.86652 9.21154 4.77436 10.4462 4.01854 12C4.77436 13.5538 5.86652 14.7885 7.29502 15.7038C8.72352 16.6192 10.2918 17.0769 12 17.0769C13.7082 17.0769 15.2765 16.6192 16.705 15.7038Z" fill="#404040"/>
</svg>
