<svg width="24" height="24" viewBox="0 0 24 24" fill="none" xmlns="http://www.w3.org/2000/svg">
<path d="M12 4C16.9624 4 21 7.24721 21 11.2393C21 12.8373 20.3756 14.2758 19.0706 15.6931C17.1829 17.8475 12.9607 20.4713 12 20.8728C11.0662 21.2631 11.1742 20.6531 11.217 20.4122L11.2204 20.3922L11.3486 19.6283C11.379 19.4008 11.4105 19.0473 11.3194 18.8221C11.2181 18.5734 10.8199 18.4441 10.5274 18.3816C6.20175 17.8162 3 14.8177 3 11.2393C3 7.24721 7.03875 4 12 4ZM8.64975 12.5708H6.93412V9.48413C6.93413 9.43818 6.91579 9.3941 6.88312 9.36151C6.85045 9.32892 6.8061 9.31046 6.75975 9.31017H6.1275C6.10445 9.31017 6.08163 9.31467 6.06034 9.32341C6.03905 9.33215 6.0197 9.34497 6.0034 9.36112C5.98711 9.37727 5.97418 9.39645 5.96536 9.41755C5.95654 9.43866 5.952 9.46128 5.952 9.48413V13.3714C5.952 13.4171 5.97112 13.4606 6.0015 13.4907V13.4918L6.00375 13.4941L6.006 13.4963C6.02201 13.5119 6.04101 13.5242 6.06187 13.5324C6.08274 13.5407 6.10505 13.5447 6.1275 13.5443H8.64975C8.7465 13.5443 8.82413 13.4662 8.82413 13.3703V12.7458C8.82427 12.723 8.81988 12.7003 8.8112 12.6792C8.80251 12.658 8.78971 12.6388 8.77352 12.6225C8.75733 12.6062 8.73806 12.5933 8.71683 12.5844C8.69559 12.5755 8.6728 12.5709 8.64975 12.5708ZM9.53963 9.31017C9.49308 9.31017 9.44844 9.3285 9.41553 9.36112C9.38262 9.39374 9.36413 9.43799 9.36413 9.48413V13.3714C9.36413 13.4673 9.44288 13.5443 9.53963 13.5443H10.1719C10.2686 13.5443 10.3463 13.4662 10.3463 13.3714V9.48413C10.3463 9.43818 10.3279 9.3941 10.2952 9.36151C10.2626 9.32892 10.2182 9.31046 10.1719 9.31017H9.53963ZM13.8855 9.31017C13.839 9.31017 13.7943 9.3285 13.7614 9.36112C13.7285 9.39374 13.71 9.43799 13.71 9.48413V11.7924L11.9134 9.38823L11.8988 9.3715L11.8875 9.35923L11.8841 9.35589L11.8717 9.34585L11.865 9.34139L11.8616 9.33916L11.856 9.33581L11.847 9.33024H11.8448L11.8414 9.32801L11.8301 9.32355L11.8256 9.32132L11.8144 9.31797H11.8121L11.8088 9.31686L11.7986 9.31463H11.7919L11.7885 9.31351H11.784L11.7818 9.3124H11.136C11.0896 9.3124 11.0452 9.33057 11.0123 9.36295C10.9794 9.39534 10.9608 9.4393 10.9605 9.48524V13.3725C10.9605 13.4684 11.0392 13.5454 11.136 13.5454H11.766C11.8639 13.5454 11.9426 13.4673 11.9426 13.3725V11.0642L13.7426 13.4729C13.7552 13.4889 13.77 13.5032 13.7865 13.5153L13.7876 13.5164L13.7989 13.5231L13.8034 13.5253L13.8124 13.5298L13.8202 13.5331L13.8259 13.5353L13.8371 13.5387H13.8405C13.8552 13.5424 13.8703 13.5447 13.8855 13.5454H14.5155C14.6134 13.5454 14.6921 13.4673 14.6921 13.3725V9.48413C14.6921 9.43799 14.6736 9.39374 14.6407 9.36112C14.6078 9.3285 14.5632 9.31017 14.5166 9.31017H13.8855ZM18.1774 10.1097V9.48524C18.1775 9.4624 18.1731 9.43975 18.1644 9.41858C18.1558 9.39742 18.143 9.37816 18.1268 9.36191C18.1106 9.34565 18.0913 9.33271 18.0701 9.32384C18.0488 9.31496 18.026 9.31031 18.003 9.31017H15.4808C15.4355 9.31079 15.3921 9.32831 15.3593 9.35923H15.3581L15.357 9.36146L15.3548 9.36481C15.3238 9.39707 15.3062 9.43963 15.3053 9.48413V13.3714C15.3053 13.4171 15.3244 13.4606 15.3548 13.4907L15.357 13.4941L15.3593 13.4963C15.3923 13.5268 15.4356 13.5439 15.4808 13.5443H18.003C18.0998 13.5443 18.1774 13.4662 18.1774 13.3703V12.7458C18.1775 12.723 18.1731 12.7003 18.1644 12.6792C18.1558 12.658 18.143 12.6388 18.1268 12.6225C18.1106 12.6062 18.0913 12.5933 18.0701 12.5844C18.0488 12.5755 18.026 12.5709 18.003 12.5708H16.2863V11.914H18.0019C18.0986 11.914 18.1762 11.8359 18.1762 11.74V11.1155C18.1764 11.0927 18.172 11.07 18.1633 11.0489C18.1546 11.0277 18.1418 11.0085 18.1256 10.9922C18.1095 10.9759 18.0902 10.963 18.069 10.9541C18.0477 10.9453 18.0249 10.9406 18.0019 10.9405H16.2863V10.2837H18.0019C18.0986 10.2837 18.1762 10.2056 18.1762 10.1097H18.1774Z" fill="white"/>
</svg>
