<svg width="80" height="80" viewBox="0 0 80 80" fill="none" xmlns="http://www.w3.org/2000/svg">
<path fill-rule="evenodd" clip-rule="evenodd" d="M40 38.904C40.6052 38.904 41.096 39.3948 41.096 40C41.096 40.6052 40.6052 41.096 40 41.096C39.3948 41.096 38.904 40.6052 38.904 40C38.904 39.3948 39.3948 38.904 40 38.904ZM40 39.452C39.6974 39.452 39.452 39.6974 39.452 40C39.452 40.3026 39.6974 40.548 40 40.548C40.3026 40.548 40.548 40.3026 40.548 40C40.548 39.6974 40.3026 39.452 40 39.452Z" fill="#F5B87B"/>
<path fill-rule="evenodd" clip-rule="evenodd" d="M40 0C41.2105 4.34872e-06 42.192 8.58629 42.192 19.178C42.192 20.79 42.1684 22.3556 42.1256 23.8516C42.4714 22.3955 42.8551 20.8774 43.2723 19.3203C46.0137 9.08952 49.184 1.04943 50.3532 1.36272C51.5222 1.67683 50.2479 10.2245 47.5067 20.4548C47.0895 22.0118 46.6612 23.5182 46.2327 24.952C46.9436 23.6351 47.7069 22.2677 48.5128 20.8717C53.8083 11.6996 58.9512 4.75471 60 5.35882C61.0483 5.96406 57.6055 13.891 52.3097 23.0636C51.5039 24.4593 50.7 25.8032 49.9152 27.077C50.9424 25.9892 52.034 24.8667 53.1736 23.7271C60.663 16.2377 67.4286 10.8595 68.2846 11.7154C69.1405 12.5713 63.7624 19.337 56.2729 26.8265C55.133 27.9663 54.0099 29.0573 52.9219 30.0848C54.196 29.2998 55.5403 28.4969 56.9364 27.6908C66.1087 22.3952 74.0353 18.9522 74.6412 20C75.2459 21.0485 68.3007 26.1915 59.1284 31.4872C57.7324 32.2931 56.3648 33.0559 55.048 33.7667C56.4817 33.3383 57.9882 32.911 59.5452 32.4939C69.776 29.7525 78.324 28.4781 78.6373 29.6473C78.9504 30.8166 70.9104 33.9864 60.6797 36.7277C59.1225 37.1449 57.604 37.528 56.1479 37.8739C57.644 37.8311 59.2098 37.808 60.822 37.808C71.4137 37.808 80 38.7895 80 40C80 41.2105 71.4137 42.192 60.822 42.192C59.2098 42.192 57.644 42.1684 56.1479 42.1256C57.6041 42.4714 59.1224 42.8551 60.6797 43.2723C70.9099 46.0135 78.9497 49.1833 78.6373 50.3527C78.324 51.5219 69.776 50.248 59.5452 47.5067C57.9877 47.0894 56.4811 46.6608 55.0469 46.2321C56.3641 46.9432 57.732 47.7066 59.1284 48.5128C68.3007 53.8085 75.2459 58.9515 74.6412 60C74.0359 61.0483 66.1091 57.605 56.9364 52.3092C55.5406 51.5033 54.1969 50.7001 52.923 49.9152C54.0109 50.9425 55.1332 52.0339 56.2729 53.1736C63.7624 60.663 69.1405 67.4287 68.2846 68.2846C67.4286 69.1404 60.663 63.7623 53.1736 56.2729C52.0338 55.1331 50.9426 54.0104 49.9152 52.9224C50.7002 54.1965 51.5037 55.5404 52.3097 56.9364C57.6056 66.1091 61.0483 74.0359 60 74.6412C58.9513 75.2455 53.8084 68.3005 48.5128 59.1284C47.7064 57.7316 46.9433 56.3632 46.2321 55.0458C46.6609 56.4802 47.0893 57.9874 47.5067 59.5452C50.2478 69.7753 51.5221 78.3229 50.3532 78.6373C49.184 78.9506 46.0137 70.9105 43.2723 60.6797C42.8551 59.1224 42.4714 57.6041 42.1256 56.1479C42.1684 57.644 42.192 59.2098 42.192 60.822C42.192 71.4137 41.2105 80 40 80C38.7895 80 37.808 71.4137 37.808 60.822C37.808 59.2098 37.8311 57.644 37.8739 56.1479C37.5281 57.604 37.1455 59.1225 36.7282 60.6797C33.9869 70.9105 30.8166 78.9506 29.6473 78.6373C28.4781 78.3239 29.7525 69.776 32.4939 59.5452C32.9113 57.9874 33.3391 56.4802 33.7679 55.0458C33.0567 56.3632 32.2935 57.7317 31.4872 59.1284C26.1915 68.3007 21.0485 75.2459 20 74.6412C18.9522 74.0352 22.3952 66.1086 27.6908 56.9364C28.4967 55.5405 29.2993 54.1964 30.0843 52.9224C29.0569 54.0103 27.9661 55.1332 26.8265 56.2729C19.337 63.7623 12.5714 69.1405 11.7154 68.2846C10.8595 67.4287 16.2376 60.663 23.7271 53.1736C24.8667 52.034 25.9892 50.9424 27.077 49.9152C25.8032 50.7 24.4593 51.5034 23.0636 52.3092C13.8909 57.605 5.96406 61.0483 5.35882 60C4.75439 58.9513 11.6995 53.8084 20.8717 48.5128C22.2676 47.7069 23.6352 46.9436 24.952 46.2327C23.5182 46.6612 22.0118 47.0895 20.4548 47.5067C10.224 50.248 1.67602 51.5219 1.36272 50.3527C1.05038 49.1833 9.0901 46.0135 19.3203 43.2723C20.8774 42.8551 22.3955 42.4714 23.8516 42.1256C22.3556 42.1684 20.79 42.192 19.178 42.192C8.58629 42.192 1.22244e-05 41.2105 0 40C5.2912e-08 38.7895 8.58628 37.808 19.178 37.808C20.79 37.808 22.3557 37.8311 23.8516 37.8739C22.3956 37.5281 20.8774 37.1449 19.3203 36.7277C9.08992 33.9864 1.05008 30.8167 1.36272 29.6473C1.67602 28.4781 10.224 29.752 20.4548 32.4933C22.012 32.9106 23.5186 33.3387 24.9526 33.7673C23.6356 33.0564 22.2678 32.2932 20.8717 31.4872C11.6993 26.1915 4.75409 21.0485 5.35882 20C5.96417 18.9518 13.891 22.395 23.0636 27.6908C24.4597 28.4969 25.804 29.2998 27.0781 30.0848C25.9901 29.0573 24.867 27.9663 23.7271 26.8265C16.2377 19.3371 10.8597 12.5715 11.7154 11.7154C12.5713 10.8595 19.337 16.2376 26.8265 23.7271C27.966 24.8667 29.057 25.9892 30.0843 27.077C29.2994 25.8032 28.4966 24.4593 27.6908 23.0636C22.3954 13.8916 18.9524 5.96505 20 5.35882C21.0485 4.75409 26.192 11.6992 31.4877 20.8717C32.2939 22.268 33.0569 23.636 33.7679 24.9531C33.3392 23.519 32.9112 22.0122 32.4939 20.4548C29.7526 10.2242 28.4782 1.67632 29.6473 1.36272C30.8166 1.04945 33.9869 9.08953 36.7282 19.3203C37.1454 20.8773 37.5281 22.3956 37.8739 23.8516C37.8311 22.3557 37.808 20.79 37.808 19.178C37.808 8.58628 38.7895 0 40 0ZM40 43.7299C39.9313 45.7796 39.4123 49.1521 38.5357 53.226C38.4205 55.5516 38.356 58.1203 38.356 60.822C38.356 66.1036 38.6008 70.8762 38.9944 74.3203C39.1916 76.0459 39.4242 77.4188 39.6758 78.3499C39.7887 78.7677 39.8995 79.072 40 79.2729C40.1005 79.072 40.2113 78.7677 40.3242 78.3499C40.5758 77.4188 40.8084 76.0459 41.0056 74.3203C41.3992 70.8762 41.644 66.1036 41.644 60.822C41.644 58.1201 41.579 55.5512 41.4637 53.2254C40.5873 49.1519 40.0687 45.7794 40 43.7299ZM39.034 43.6044C38.4369 45.5667 37.0633 48.6902 35.1624 52.3979C34.4493 54.6141 33.7225 57.0779 33.0234 59.6869C31.6565 64.7886 30.6574 69.462 30.1462 72.8906C29.8901 74.6083 29.7592 75.9948 29.7612 76.9593C29.7621 77.3919 29.7909 77.7147 29.8359 77.9347C29.985 77.7667 30.1708 77.5014 30.3878 77.1272C30.8718 76.293 31.4517 75.0269 32.0887 73.4113C33.3603 70.1864 34.8317 65.6396 36.1987 60.5379C36.8979 57.9284 37.4999 55.4307 37.9905 53.1546C38.1982 48.9937 38.5701 45.6022 39.034 43.6044ZM40.9643 43.5993C41.4288 45.5964 41.8011 48.9898 42.0089 53.154C42.4995 55.4303 43.1021 57.9282 43.8013 60.5379C45.1683 65.6396 46.6397 70.1864 47.9113 73.4113C48.5484 75.027 49.1288 76.293 49.6127 77.1272C49.8299 77.5015 50.0156 77.7667 50.1646 77.9347C50.2097 77.7147 50.2385 77.3918 50.2394 76.9593C50.2414 75.9948 50.1099 74.6083 49.8538 72.8906C49.3426 69.462 48.3441 64.7886 46.9771 59.6869C46.2777 57.0765 45.5505 54.6116 44.8371 52.3945C42.9353 48.6849 41.5604 45.5608 40.9643 43.5993ZM38.1367 43.2266C37.0532 44.967 34.9168 47.6296 32.1194 50.721C30.8566 52.6776 29.5168 54.8703 28.1657 57.2104C25.5249 61.7845 23.3505 66.0404 21.9693 69.2199C21.2774 70.8127 20.7918 72.1176 20.5441 73.0497C20.433 73.4678 20.3773 73.7869 20.3638 74.0112C20.5513 73.8874 20.7994 73.6792 21.106 73.3739C21.7893 72.6934 22.677 71.621 23.7104 70.2254C25.7733 67.4396 28.372 63.4284 31.0128 58.8544C32.3636 56.5147 33.5922 54.258 34.6551 52.1864C35.9338 48.2174 37.1711 45.0354 38.1367 43.2266ZM41.8633 43.2271C42.8289 45.036 44.0663 48.2177 45.3449 52.1864C46.4079 54.258 47.6369 56.5146 48.9877 58.8544C51.6286 63.4284 54.2267 67.4396 56.2896 70.2254C57.3231 71.6211 58.2112 72.6934 58.8945 73.3739C59.2012 73.6793 59.4492 73.8874 59.6367 74.0112C59.6233 73.7869 59.567 73.4678 59.4559 73.0497C59.2082 72.1176 58.7231 70.8126 58.0313 69.2199C56.6501 66.0404 54.4757 61.7845 51.8348 57.2104C50.4842 54.8711 49.1447 52.6788 47.8823 50.7227C45.0842 47.6307 42.9471 44.968 41.8633 43.2271ZM37.3616 42.6378C35.8635 44.0386 33.1124 46.0566 29.6127 48.317C27.8868 49.8799 26.0248 51.651 24.1144 53.5614C20.3797 57.2961 17.1776 60.8439 15.0206 63.5575C13.9402 64.9168 13.1339 66.0517 12.6535 66.8878C12.4378 67.2631 12.3009 67.5569 12.2299 67.7701C12.4431 67.6991 12.7369 67.5622 13.1122 67.3465C13.9483 66.8661 15.0832 66.0598 16.4425 64.9794C19.1561 62.8224 22.7039 59.6203 26.4386 55.8856C28.3489 53.9753 30.1196 52.1132 31.6825 50.3873C33.9429 46.8875 35.9609 44.1359 37.3616 42.6378ZM42.6378 42.6378C44.0389 44.1361 46.0575 46.8884 48.3186 50.3895C49.8812 52.1149 51.6517 53.9759 53.5614 55.8856C57.2961 59.6203 60.8439 62.8224 63.5575 64.9794C64.9168 66.0598 66.0517 66.8661 66.8878 67.3465C67.2631 67.5622 67.5569 67.6991 67.7701 67.7701C67.6991 67.5569 67.5622 67.2631 67.3465 66.8878C66.8661 66.0517 66.0598 64.9168 64.9794 63.5575C62.8224 60.8439 59.6203 57.2961 55.8856 53.5614C53.9752 51.651 52.1132 49.8799 50.3873 48.317C46.8874 46.0565 44.1358 44.0386 42.6378 42.6378ZM36.7695 41.865C34.96 42.8303 31.7796 44.067 27.8131 45.3449C25.7416 46.4078 23.4851 47.637 21.1456 48.9877C16.5717 51.6285 12.5609 54.2268 9.77511 56.2896C8.37948 57.3231 7.30666 58.2106 6.62612 58.894C6.32072 59.2007 6.11259 59.4492 5.98884 59.6367C6.21309 59.6233 6.53207 59.567 6.95034 59.4559C7.88244 59.2082 9.18775 58.7227 10.7807 58.0307C13.9601 56.6495 18.2158 54.4755 22.7896 51.8348C25.1295 50.4839 27.3219 49.1433 29.2785 47.8806C32.3679 45.0849 35.0289 42.9492 36.7695 41.865ZM43.2277 41.8633C44.9682 42.947 47.6305 45.0834 50.7215 47.8806C52.6781 49.1433 54.8705 50.4833 57.2104 51.8343C61.7845 54.4751 66.0404 56.6495 69.2199 58.0307C70.8127 58.7226 72.1176 59.2082 73.0497 59.4559C73.4682 59.5671 73.7874 59.6234 74.0117 59.6367C73.888 59.4492 73.6795 59.2009 73.3739 58.894C72.6934 58.2107 71.621 57.323 70.2254 56.2896C67.4396 54.2267 63.4284 51.6285 58.8544 48.9877C56.5147 47.6369 54.258 46.4078 52.1864 45.3449C48.218 44.0664 45.0366 42.8289 43.2277 41.8633ZM43.6044 40.9654C45.5665 41.5625 48.6895 42.9364 52.3968 44.8371C54.6133 45.5503 57.0774 46.2779 59.6869 46.9771C64.7886 48.3441 69.462 49.3426 72.8906 49.8538C74.6083 50.1099 75.9948 50.2414 76.9593 50.2394C77.3922 50.2385 77.7152 50.2097 77.9353 50.1646C77.7673 50.0155 77.5017 49.83 77.1272 49.6127C76.293 49.1288 75.027 48.5484 73.4113 47.9113C70.1864 46.6397 65.6396 45.1683 60.5379 43.8013C57.9282 43.1021 55.4303 42.4995 53.154 42.0089C48.9934 41.8013 45.6021 41.4294 43.6044 40.9654ZM36.3951 40.9654C34.3972 41.4293 31.006 41.8013 26.8454 42.0089C24.5693 42.4995 22.0716 43.1021 19.4621 43.8013C14.3604 45.1683 9.81357 46.6397 6.58873 47.9113C4.97305 48.5484 3.70699 49.1288 2.87277 49.6127C2.49857 49.8298 2.2333 50.0156 2.06529 50.1646C2.28535 50.2097 2.60807 50.2379 3.04074 50.2388C4.00518 50.2408 5.39158 50.1099 7.10938 49.8538C10.538 49.3426 15.2114 48.3441 20.3131 46.9771C22.9224 46.278 25.3863 45.5502 27.6027 44.8371C31.3098 42.9365 34.4328 41.5626 36.3951 40.9654ZM39.4102 44.4782C39.2601 45.2681 39.12 46.2244 38.9944 47.3237C38.9421 47.7818 38.8928 48.2636 38.846 48.7667C38.931 48.2686 39.0079 47.7903 39.0759 47.3343C39.2391 46.24 39.3507 45.2801 39.4102 44.4782ZM40.5898 44.4827C40.6494 45.2836 40.7618 46.2419 40.9247 47.3343C40.9924 47.7883 41.0684 48.2643 41.1529 48.76C41.1062 48.2593 41.0577 47.7798 41.0056 47.3237C40.8802 46.2264 40.7396 45.2718 40.5898 44.4827ZM38.2706 44.1741C37.9214 44.898 37.539 45.7855 37.1334 46.8142C36.9648 47.2416 36.7932 47.6925 36.6183 48.1646C36.8286 47.707 37.0261 47.2664 37.2093 46.8449C37.6498 45.8308 38.0057 44.9329 38.2706 44.1741ZM41.7288 44.1741C41.9937 44.933 42.3507 45.8306 42.7913 46.8449C42.9744 47.2664 43.1715 47.707 43.3817 48.1646C43.2069 47.6926 43.0357 47.2416 42.8672 46.8142C42.4615 45.7854 42.078 44.8981 41.7288 44.1741ZM37.2489 43.5854C36.7244 44.1941 36.1254 44.9516 35.4676 45.8398C35.1933 46.2104 34.9088 46.6022 34.6166 47.0145C34.9393 46.6256 35.2455 46.2505 35.5324 45.8895C36.2202 45.0242 36.7966 44.2496 37.2489 43.5854ZM42.7489 43.5826C43.2014 44.2475 43.7788 45.023 44.4676 45.8895C44.7545 46.2504 45.0602 46.6257 45.3828 47.0145C45.0908 46.6024 44.8072 46.2102 44.5329 45.8398C43.8741 44.9502 43.274 44.1918 42.7489 43.5826ZM36.4169 42.7489C35.7521 43.2014 34.9769 43.779 34.1105 44.4676C33.7495 44.7546 33.3739 45.0601 32.9849 45.3828C33.3973 45.0906 33.7896 44.8068 34.1602 44.5324C35.0496 43.8737 35.8077 43.2739 36.4169 42.7489ZM43.5826 42.7489C44.1918 43.274 44.9502 43.8736 45.8398 44.5324C46.2103 44.8067 46.6023 45.0907 47.0145 45.3828C46.6257 45.0602 46.2504 44.7545 45.8895 44.4676C45.023 43.7788 44.2475 43.2014 43.5826 42.7489ZM44.1741 41.7288C44.898 42.078 45.785 42.461 46.8136 42.8666C47.2428 43.0359 47.696 43.2083 48.1702 43.3839C47.7107 43.1728 47.268 42.9751 46.8449 42.7913C45.8307 42.3507 44.9329 41.9937 44.1741 41.7288ZM35.8259 41.7288C35.0671 41.9937 34.1693 42.3507 33.1551 42.7913C32.7324 42.9749 32.2904 43.1725 31.8315 43.3834C32.3051 43.208 32.7577 43.0357 33.1864 42.8666C34.215 42.461 35.102 42.078 35.8259 41.7288ZM39.966 42.4459C39.982 42.5783 39.993 42.7251 40 42.8856C40.007 42.7252 40.0174 42.5783 40.0335 42.4459C40.0215 42.4197 40.0117 42.3939 40 42.3705C39.9883 42.394 39.978 42.4196 39.966 42.4459ZM40.5999 42.3722C40.65 42.4968 40.6992 42.6369 40.7478 42.7913C40.7125 42.6329 40.6846 42.4865 40.6657 42.3532C40.6475 42.3311 40.6311 42.3091 40.6138 42.2896C40.6085 42.3155 40.6047 42.3434 40.5999 42.3722ZM39.3343 42.3532C39.3155 42.4855 39.2876 42.6304 39.2528 42.7874C39.3011 42.634 39.3503 42.495 39.4001 42.3711C39.3953 42.3427 39.392 42.3152 39.3867 42.2896C39.3694 42.3091 39.3526 42.3311 39.3343 42.3532ZM38.7467 42.1016C38.6941 42.2247 38.6304 42.3581 38.5558 42.5011C38.6425 42.3649 38.7259 42.2427 38.8064 42.1356C38.8091 42.1068 38.8132 42.0793 38.8147 42.053C38.7927 42.0676 38.7704 42.0847 38.7467 42.1016ZM41.1931 42.1356C41.273 42.242 41.3559 42.3632 41.442 42.4983C41.3681 42.3564 41.3049 42.2239 41.2528 42.1016C41.2292 42.0848 41.2072 42.0675 41.1853 42.053C41.1868 42.0792 41.1903 42.1068 41.1931 42.1356ZM41.7054 41.7534C41.8108 41.836 41.9229 41.9327 42.0419 42.0419C41.9327 41.9229 41.836 41.8108 41.7534 41.7054C41.7265 41.6953 41.701 41.6846 41.6763 41.6763C41.6846 41.701 41.6953 41.7265 41.7054 41.7534ZM38.2461 41.7054C38.1638 41.8104 38.0679 41.9223 37.9593 42.0407C38.0777 41.9322 38.1891 41.8357 38.2941 41.7534C38.3041 41.7264 38.3154 41.7011 38.3237 41.6763C38.2988 41.6846 38.2731 41.6953 38.2461 41.7054ZM40.2299 38.2506C40.1541 38.3199 40.0779 38.356 40 38.356C39.9222 38.356 39.8458 38.3203 39.7701 38.2511C39.7149 38.3375 39.6499 38.3922 39.5748 38.4124C39.4996 38.4325 39.4164 38.4173 39.3253 38.37C39.2944 38.4679 39.2455 38.5375 39.178 38.5765C39.1105 38.6153 39.0261 38.6226 38.9258 38.6004C38.9212 38.703 38.8927 38.7826 38.8376 38.8376C38.7826 38.8926 38.7029 38.9212 38.6004 38.9258C38.6226 39.026 38.6153 39.1106 38.5765 39.178C38.5374 39.2456 38.4676 39.2938 38.3694 39.3248C38.4169 39.4161 38.4326 39.4994 38.4124 39.5748C38.3922 39.6499 38.3376 39.7149 38.2511 39.7701C38.3203 39.8458 38.356 39.9222 38.356 40C38.356 40.0779 38.3199 40.1541 38.2506 40.2299C38.3372 40.2852 38.3922 40.35 38.4124 40.4252C38.4325 40.5004 38.4172 40.5836 38.37 40.6747C38.468 40.7056 38.5375 40.7545 38.5765 40.822C38.6154 40.8894 38.6226 40.974 38.6004 41.0742C38.7029 41.0788 38.7826 41.1074 38.8376 41.1624C38.8926 41.2174 38.9212 41.2971 38.9258 41.3996C39.0261 41.3774 39.1106 41.3852 39.178 41.4241C39.2454 41.463 39.2938 41.5322 39.3248 41.63C39.4159 41.5826 39.4995 41.5675 39.5748 41.5876C39.6498 41.6078 39.7144 41.6627 39.7695 41.7489C39.8453 41.6795 39.9221 41.644 40 41.644C40.0778 41.644 40.1542 41.6797 40.2299 41.7489C40.285 41.6626 40.3502 41.6084 40.4252 41.5882C40.5003 41.5681 40.5838 41.5824 40.6747 41.6295C40.7056 41.5319 40.7548 41.463 40.822 41.4241C40.8894 41.3852 40.974 41.3775 41.0742 41.3996C41.0788 41.2971 41.1074 41.2174 41.1624 41.1624C41.2174 41.1074 41.2971 41.0788 41.3996 41.0742C41.3774 40.974 41.3847 40.8894 41.4236 40.822C41.4624 40.7546 41.5317 40.7056 41.6295 40.6747C41.5824 40.5838 41.5675 40.5003 41.5876 40.4252C41.6078 40.3501 41.6625 40.2851 41.7489 40.2299C41.6797 40.1542 41.644 40.0778 41.644 40C41.644 39.9221 41.6795 39.8453 41.7489 39.7695C41.6627 39.7144 41.6083 39.6498 41.5882 39.5748C41.568 39.4995 41.5826 39.416 41.63 39.3248C41.5322 39.2938 41.463 39.2454 41.4241 39.178C41.3852 39.1105 41.3774 39.0261 41.3996 38.9258C41.297 38.9212 41.2174 38.8927 41.1624 38.8376C41.1073 38.7826 41.0788 38.703 41.0742 38.6004C40.974 38.6226 40.8894 38.6154 40.822 38.5765C40.7545 38.5375 40.7056 38.468 40.6747 38.37C40.5837 38.4172 40.5003 38.4325 40.4252 38.4124C40.3501 38.3921 40.2851 38.3372 40.2299 38.2506ZM19.178 38.356C13.8964 38.356 9.12376 38.6008 5.67969 38.9944C3.95414 39.1916 2.58118 39.4242 1.65011 39.6758C1.23233 39.7887 0.92803 39.8995 0.727121 40C0.928031 40.1005 1.23233 40.2113 1.65011 40.3242C2.58118 40.5758 3.95414 40.8084 5.67969 41.0056C9.12376 41.3992 13.8964 41.644 19.178 41.644C21.8795 41.644 24.448 41.579 26.7734 41.4637C30.8471 40.5872 34.2197 40.0688 36.2695 40C34.2197 39.9312 30.8472 39.4123 26.7734 38.5357C24.448 38.4205 21.8795 38.356 19.178 38.356ZM60.822 38.356C58.1203 38.356 55.5516 38.4205 53.226 38.5357C49.1521 39.4123 45.7795 39.9313 43.7299 40C45.7795 40.0687 49.1522 40.5872 53.226 41.4637C55.5516 41.579 58.1203 41.644 60.822 41.644C66.1036 41.644 70.8762 41.3992 74.3203 41.0056C76.0459 40.8084 77.4188 40.5758 78.3499 40.3242C78.768 40.2112 79.0725 40.1006 79.2734 40C79.0725 39.8994 78.768 39.7888 78.3499 39.6758C77.4188 39.4242 76.0459 39.1916 74.3203 38.9944C70.8762 38.6008 66.1036 38.356 60.822 38.356ZM42.101 41.2522C42.2244 41.3048 42.3578 41.369 42.5011 41.4436C42.3652 41.3571 42.2431 41.274 42.1362 41.1936C42.1072 41.1909 42.0793 41.1874 42.053 41.1858C42.0673 41.2075 42.0845 41.229 42.101 41.2522ZM37.8644 41.1931C37.7577 41.2732 37.6361 41.3562 37.5006 41.4425C37.643 41.3683 37.7757 41.3045 37.8984 41.2522C37.9152 41.2287 37.9331 41.2071 37.9475 41.1853C37.9212 41.1868 37.8933 41.1903 37.8644 41.1931ZM35.5167 40.5898C34.7159 40.6494 33.7577 40.7613 32.6657 40.9241C32.2113 40.9919 31.7351 41.0683 31.2388 41.1529C31.74 41.1062 32.2199 41.0577 32.6763 41.0056C33.7733 40.8802 34.7278 40.7395 35.5167 40.5898ZM44.4827 40.5898C45.2718 40.7396 46.2264 40.8802 47.3237 41.0056C47.7799 41.0577 48.2596 41.1062 48.7606 41.1529C48.2646 41.0683 47.7885 40.9918 47.3343 40.9241C46.242 40.7613 45.2836 40.6494 44.4827 40.5898ZM37.6272 40.5999C37.5026 40.65 37.3625 40.6992 37.2081 40.7478C37.3665 40.7125 37.513 40.6852 37.6462 40.6663C37.6686 40.6479 37.6907 40.6313 37.7104 40.6138C37.6843 40.6085 37.6563 40.6048 37.6272 40.5999ZM42.2902 40.6138C42.3097 40.6312 42.3316 40.648 42.3538 40.6663C42.4869 40.6852 42.6331 40.7126 42.7913 40.7478C42.6369 40.6992 42.4968 40.65 42.3722 40.5999C42.3436 40.6047 42.316 40.6086 42.2902 40.6138ZM37.5536 39.966C37.4201 39.9821 37.2719 39.993 37.1099 40C37.2719 40.007 37.4201 40.0173 37.5536 40.0335C37.58 40.0214 37.6059 40.0118 37.6295 40C37.6059 39.9882 37.58 39.978 37.5536 39.966ZM42.3711 40C42.3945 40.0117 42.4202 40.0215 42.4464 40.0335C42.5787 40.0175 42.7254 40.007 42.8856 40C42.7253 39.993 42.5787 39.982 42.4464 39.966C42.4201 39.978 42.3946 39.9883 42.3711 40ZM31.2388 38.8465C31.7351 38.9312 32.2113 39.0081 32.6657 39.0759C33.758 39.2387 34.7164 39.35 35.5173 39.4096C34.7283 39.2599 33.7735 39.1198 32.6763 38.9944C32.2199 38.9423 31.7401 38.8933 31.2388 38.8465ZM48.7606 38.8465C48.2596 38.8932 47.7799 38.9423 47.3237 38.9944C46.2262 39.1198 45.2713 39.2598 44.4821 39.4096C45.2832 39.35 46.2417 39.2388 47.3343 39.0759C47.7885 39.0082 48.2646 38.9311 48.7606 38.8465ZM37.2081 39.2517C37.3625 39.3002 37.5026 39.3495 37.6272 39.3996C37.6562 39.3947 37.6843 39.3915 37.7104 39.3862C37.6907 39.3687 37.6686 39.3521 37.6462 39.3337C37.5129 39.3148 37.3666 39.2869 37.2081 39.2517ZM42.7913 39.2517C42.6331 39.2869 42.4869 39.3142 42.3538 39.3331C42.3315 39.3516 42.3098 39.3687 42.2902 39.3862C42.3159 39.3914 42.3437 39.3948 42.3722 39.3996C42.4968 39.3495 42.6369 39.3002 42.7913 39.2517ZM3.04074 29.7612C2.60802 29.7621 2.28535 29.7909 2.06529 29.8359C2.23331 29.985 2.49869 30.1702 2.87277 30.3873C3.70699 30.8712 4.97305 31.4516 6.58873 32.0887C9.81357 33.3603 14.3604 34.8317 19.4621 36.1987C22.0716 36.8979 24.5693 37.4999 26.8454 37.9905C31.0059 38.1981 34.3972 38.5701 36.3951 39.034C34.4328 38.4368 31.3099 37.063 27.6027 35.1624C25.3864 34.4492 22.9223 33.7226 20.3131 33.0234C15.2113 31.6564 10.538 30.6574 7.10938 30.1462C5.3916 29.8901 4.00518 29.7592 3.04074 29.7612ZM76.9593 29.7612C75.9948 29.7592 74.6083 29.8901 72.8906 30.1462C69.462 30.6574 64.7886 31.6565 59.6869 33.0234C57.0783 33.7224 54.6149 34.4489 52.399 35.1618C48.6908 37.063 45.5669 38.4368 43.6044 39.034C45.6021 38.5701 48.9934 38.1982 53.154 37.9905C55.4303 37.4999 57.9282 36.8979 60.5379 36.1987C65.6396 34.8317 70.1864 33.3603 73.4113 32.0887C75.027 31.4516 76.293 30.8712 77.1272 30.3873C77.5017 30.17 77.7673 29.9845 77.9353 29.8354C77.7152 29.7903 77.3921 29.7621 76.9593 29.7612ZM37.5006 38.5569C37.6363 38.6434 37.7581 38.7267 37.865 38.8069C37.8936 38.8097 37.9209 38.8132 37.947 38.8147C37.9324 38.7926 37.9149 38.7705 37.8979 38.7467C37.7753 38.6944 37.6428 38.631 37.5006 38.5569ZM42.5011 38.5558C42.3582 38.6303 42.2252 38.6942 42.1021 38.7467C42.0852 38.7704 42.0681 38.7927 42.0536 38.8147C42.0795 38.8132 42.1066 38.8096 42.135 38.8069C42.2423 38.7263 42.3647 38.6426 42.5011 38.5558ZM42.0424 37.957C41.923 38.0666 41.8106 38.1638 41.7048 38.2467C41.6947 38.2736 41.6846 38.2994 41.6763 38.3242C41.7009 38.316 41.7261 38.3052 41.7528 38.2952C41.8357 38.1893 41.9328 38.0766 42.0424 37.957ZM37.9565 37.9565C38.0661 38.0759 38.1632 38.1883 38.2461 38.2941C38.2734 38.3043 38.2992 38.3153 38.3242 38.3237C38.3159 38.2987 38.3048 38.2732 38.2946 38.2461C38.1887 38.1631 38.076 38.0662 37.9565 37.9565ZM31.8292 36.6155C32.289 36.8268 32.7318 37.0248 33.1551 37.2087C34.1696 37.6494 35.0675 38.0062 35.8265 38.2712C35.1025 37.9219 34.2152 37.5391 33.1864 37.1334C32.757 36.9641 32.3037 36.7912 31.8292 36.6155ZM48.1674 36.6166C47.6942 36.7919 47.2425 36.9645 46.8142 37.1334C45.7855 37.539 44.898 37.9214 44.1741 38.2706C44.9329 38.0057 45.8307 37.6493 46.8449 37.2087C47.2673 37.0252 47.7088 36.8274 48.1674 36.6166ZM74.0117 20.3633C73.7875 20.3767 73.4685 20.433 73.0502 20.5441C72.1181 20.7918 70.8128 21.2773 69.2199 21.9693C66.0404 23.3505 61.7845 25.5249 57.2104 28.1657C54.8703 29.5168 52.6776 30.8566 50.721 32.1194C47.6296 34.9168 44.967 37.0532 43.2266 38.1367C45.0355 37.171 48.2177 35.9333 52.1869 34.6546C54.2584 33.5917 56.5149 32.3635 58.8544 31.0128C63.4285 28.372 67.4396 25.7733 70.2254 23.7104C71.6211 22.6769 72.6939 21.7894 73.3744 21.106C73.68 20.7992 73.888 20.5508 74.0117 20.3633ZM5.98884 20.3633C6.11259 20.5508 6.32072 20.7993 6.62612 21.106C7.30662 21.7893 8.37903 22.677 9.77455 23.7104C12.5604 25.7733 16.5716 28.3715 21.1456 31.0123C23.4851 32.3629 25.7416 33.5917 27.8131 34.6546C31.7803 35.9326 34.9612 37.1696 36.7706 38.135C35.0301 37.0509 32.3683 34.9155 29.2785 32.1194C27.3219 30.8567 25.1295 29.5167 22.7896 28.1657C18.2155 25.5249 13.9596 23.3505 10.7801 21.9693C9.18729 21.2774 7.88241 20.7918 6.95034 20.5441C6.53213 20.433 6.21309 20.3767 5.98884 20.3633ZM38.5569 37.5006C38.631 37.6428 38.6944 37.7753 38.7467 37.8979C38.7704 37.9148 38.7926 37.9324 38.8147 37.947C38.8132 37.921 38.8096 37.8935 38.8069 37.865C38.7267 37.7581 38.6434 37.6363 38.5569 37.5006ZM41.4409 37.5033C41.3553 37.6375 41.2731 37.758 41.1936 37.8638C41.1909 37.8928 41.1874 37.9206 41.1858 37.947C41.2075 37.9327 41.2289 37.9151 41.2522 37.8984C41.3042 37.7765 41.3673 37.6447 41.4409 37.5033ZM39.2528 37.2126C39.2875 37.3692 39.315 37.5137 39.3337 37.6456C39.3522 37.6681 39.3692 37.6901 39.3867 37.7098C39.392 37.6842 39.3953 37.6568 39.4001 37.6283C39.3503 37.5046 39.3011 37.3658 39.2528 37.2126ZM40.7478 37.2081C40.6992 37.3625 40.65 37.5026 40.5999 37.6272C40.6047 37.6561 40.6085 37.6839 40.6138 37.7098C40.6313 37.6902 40.6479 37.668 40.6663 37.6456C40.6852 37.5126 40.7126 37.3663 40.7478 37.2081ZM40 37.1144C39.993 37.2749 39.982 37.4217 39.966 37.5541C39.9779 37.5803 39.9883 37.6056 40 37.6289C40.0118 37.6054 40.0214 37.5794 40.0335 37.553C40.0175 37.4209 40.007 37.2744 40 37.1144ZM12.2299 12.2299C12.3009 12.443 12.4379 12.7365 12.6535 13.1116C13.1339 13.9478 13.94 15.083 15.0206 16.4425C17.1776 19.1561 20.3797 22.7039 24.1144 26.4386C26.0246 28.3488 27.8864 30.1196 29.6122 31.6825C33.1135 33.9438 35.8655 35.9624 37.3633 37.3633C35.9624 35.8654 33.9439 33.1131 31.6825 29.6116C30.1197 27.8859 28.3487 26.0245 26.4386 24.1144C22.7039 20.3797 19.1561 17.1776 16.4425 15.0206C15.0831 13.9401 13.9484 13.1334 13.1122 12.6529C12.737 12.4373 12.443 12.3009 12.2299 12.2299ZM67.7701 12.2299C67.557 12.3009 67.263 12.4379 66.8878 12.6535C66.0517 13.1339 64.9168 13.9402 63.5575 15.0206C60.8439 17.1776 57.2961 20.3797 53.5614 24.1144C51.6518 26.024 49.8811 27.8846 48.3186 29.6099C46.0567 33.1122 44.0379 35.8652 42.6367 37.3633C44.1344 35.9625 46.8863 33.9442 50.3873 31.683C52.1132 30.1201 53.9752 28.349 55.8856 26.4386C59.6203 22.7039 62.8224 19.1561 64.9794 16.4425C66.0598 15.0832 66.8661 13.9483 67.3465 13.1122C67.5621 12.737 67.6991 12.4431 67.7701 12.2299ZM47.0145 34.6166C46.6022 34.9088 46.2104 35.1933 45.8398 35.4676C44.9516 36.1254 44.1941 36.7244 43.5854 37.2489C44.2496 36.7966 45.0242 36.2202 45.8895 35.5324C46.2505 35.2455 46.6256 34.9393 47.0145 34.6166ZM32.9849 34.6166C33.374 34.9394 33.7494 35.2454 34.1105 35.5324C34.9757 36.2201 35.7505 36.7961 36.4146 37.2483C35.8059 36.7239 35.0483 36.1253 34.1602 35.4676C33.7895 35.1932 33.3974 34.9089 32.9849 34.6166ZM20.3633 5.98828C20.3766 6.21256 20.4334 6.53178 20.5446 6.95034C20.7923 7.88238 21.2774 9.18737 21.9693 10.7801C23.3505 13.9596 25.5249 18.2155 28.1657 22.7896C29.5167 25.1295 30.8567 27.322 32.1194 29.2785C34.915 32.3677 37.0502 35.0289 38.1345 36.7695C37.1689 34.9596 35.9321 31.7782 34.654 27.8108C33.5914 25.7399 32.3631 23.4843 31.0128 21.1456C28.372 16.5716 25.7738 12.5604 23.7109 9.77455C22.6774 8.37887 21.7894 7.30664 21.106 6.62612C20.7991 6.3205 20.5508 6.112 20.3633 5.98828ZM59.6367 5.98828C59.4492 6.112 59.2008 6.32055 58.894 6.62612C58.2106 7.30666 57.3231 8.37952 56.2896 9.77511C54.2268 12.5609 51.6285 16.5717 48.9877 21.1456C47.637 23.4852 46.4078 25.7416 45.3449 27.8131C44.067 31.7796 42.8303 34.96 41.865 36.7695C42.9495 35.0286 45.0857 32.367 47.8823 29.2768C49.1446 27.3208 50.4843 25.1288 51.8348 22.7896C54.4756 18.2157 56.6501 13.9601 58.0313 10.7807C58.7232 9.18778 59.2082 7.88243 59.4559 6.95034C59.5671 6.53177 59.6234 6.21256 59.6367 5.98828ZM45.3828 32.9844C45.06 33.3734 44.7546 33.7494 44.4676 34.1105C43.779 34.9769 43.2014 35.7521 42.7489 36.4169C43.2739 35.8077 43.8743 35.0496 44.5329 34.1602C44.8073 33.7896 45.0906 33.3968 45.3828 32.9844ZM34.6166 32.9844C34.909 33.397 35.1931 33.7894 35.4676 34.1602C36.1253 35.0482 36.7244 35.8054 37.2489 36.4141C36.7967 35.7499 36.22 34.9756 35.5324 34.1105C35.2453 33.7494 34.9395 33.3735 34.6166 32.9844ZM50.1646 2.06473C50.0155 2.23274 49.83 2.49831 49.6127 2.87277C49.1288 3.70697 48.5489 4.97311 47.9118 6.58873C46.6403 9.81357 45.1683 14.3604 43.8013 19.4621C43.1021 22.0716 42.4995 24.5693 42.0089 26.8454C41.8011 31.0095 41.4288 34.4029 40.9643 36.4001C41.5606 34.4384 42.9352 31.314 44.8371 27.6044C45.5504 25.3876 46.2778 22.923 46.9771 20.3131C48.3441 15.2114 49.3426 10.538 49.8538 7.10938C50.1099 5.39158 50.2414 4.00518 50.2394 3.04074C50.2385 2.60771 50.2098 2.2848 50.1646 2.06473ZM29.8359 2.06473C29.7908 2.2848 29.7621 2.60772 29.7612 3.04074C29.7592 4.00518 29.8901 5.3916 30.1462 7.10938C30.6574 10.538 31.6564 15.2113 33.0234 20.3131C33.7225 22.9221 34.4493 25.3859 35.1624 27.6021C37.0631 31.3095 38.4368 34.4327 39.034 36.3951C38.57 34.3967 38.1981 31.0045 37.9905 26.8426C37.5001 24.5673 36.8981 22.0704 36.1992 19.4621C34.8322 14.3604 33.3603 9.81357 32.0887 6.58873C31.4517 4.97308 30.8718 3.70698 30.3878 2.87277C30.1706 2.49832 29.985 2.23275 29.8359 2.06473ZM40 0.726563C39.8994 0.927468 39.7888 1.23203 39.6758 1.65011C39.4242 2.58118 39.1916 3.95414 38.9944 5.67969C38.6008 9.12376 38.356 13.8964 38.356 19.178C38.356 21.8795 38.4205 24.448 38.5357 26.7734C39.4122 30.8466 39.9311 34.2191 40 36.269C40.0689 34.2192 40.5874 30.8469 41.4637 26.774C41.579 24.4484 41.644 21.8797 41.644 19.178C41.644 13.8964 41.3992 9.12376 41.0056 5.67969C40.8084 3.95414 40.5758 2.58118 40.3242 1.65011C40.2112 1.23203 40.1006 0.927468 40 0.726563ZM43.3834 31.8315C43.1725 32.2904 42.9749 32.7324 42.7913 33.1551C42.3507 34.1693 41.9937 35.0671 41.7288 35.8259C42.078 35.102 42.4616 34.2151 42.8672 33.1864C43.0362 32.7577 43.208 32.3051 43.3834 31.8315ZM36.6161 31.8292C36.7918 32.3037 36.9641 32.757 37.1334 33.1864C37.5386 34.214 37.9212 35.1002 38.2701 35.8237C38.0052 35.0653 37.6494 34.1683 37.2093 33.1551C37.0254 32.7318 36.8273 32.289 36.6161 31.8292ZM38.846 31.2333C38.8928 31.7364 38.9421 32.2182 38.9944 32.6763C39.12 33.7753 39.2601 34.7314 39.4102 35.5212C39.3506 34.7195 39.239 33.7598 39.0759 32.6657C39.0079 32.2097 38.931 31.7315 38.846 31.2333ZM41.1529 31.2394C41.0683 31.7354 40.9924 32.2115 40.9247 32.6657C40.7619 33.7577 40.6494 34.7159 40.5898 35.5167C40.7395 34.7278 40.8802 33.7733 41.0056 32.6763C41.0577 32.2201 41.1062 31.7404 41.1529 31.2394Z" fill="#F5B87B"/>
</svg>
