<svg width="180" height="120" viewBox="0 0 180 120" fill="none" xmlns="http://www.w3.org/2000/svg">
<path d="M57.666 116.367C58.2075 116.26 58.7334 116.612 58.8408 117.153C58.948 117.695 58.5954 118.221 58.0537 118.328C55.4825 118.837 52.8495 119.218 50.1631 119.468C49.6134 119.519 49.1265 119.115 49.0752 118.565C49.0242 118.016 49.428 117.529 49.9775 117.478C52.5968 117.234 55.1628 116.862 57.666 116.367Z" fill="#F5B87B"/>
<path d="M21.7168 116.312C21.839 115.773 22.3747 115.436 22.9131 115.558C25.4897 116.142 28.0436 116.609 30.5684 116.964C31.1152 117.041 31.4965 117.547 31.4199 118.094C31.3429 118.64 30.8367 119.021 30.29 118.944C27.7095 118.582 25.1008 118.104 22.4707 117.508C21.9324 117.385 21.5947 116.85 21.7168 116.312Z" fill="#F5B87B"/>
<path d="M82.585 106.059C83.0403 105.746 83.664 105.862 83.9766 106.317C84.2886 106.772 84.1725 107.394 83.7178 107.707C81.5365 109.204 79.2463 110.576 76.8584 111.813C76.3681 112.068 75.7639 111.876 75.5098 111.386C75.2559 110.895 75.4482 110.292 75.9385 110.038C78.2542 108.838 80.4726 107.509 82.585 106.059Z" fill="#F5B87B"/>
<path d="M0.860352 107.82C2.04977 108.387 3.23804 108.928 4.42383 109.444C4.93022 109.665 5.16184 110.255 4.94141 110.762C4.72083 111.268 4.13215 111.499 3.62598 111.279C2.41889 110.754 1.2101 110.202 0 109.625L0.860352 107.82Z" fill="#F5B87B"/>
<path d="M100.685 86.2197C100.951 85.7364 101.561 85.5605 102.044 85.8271C102.527 86.0939 102.703 86.703 102.437 87.1865C101.14 89.5365 99.6911 91.7821 98.1025 93.916C97.7729 94.3588 97.1471 94.4512 96.7041 94.1221C96.2612 93.7923 96.1685 93.1656 96.498 92.7227C98.033 90.6609 99.4318 88.4902 100.685 86.2197Z" fill="#F5B87B"/>
<path d="M108.144 60.4678C108.232 59.9227 108.745 59.5519 109.29 59.6396C109.835 59.7276 110.206 60.241 110.118 60.7861C109.925 61.9816 109.758 63.1944 109.616 64.4238C109.463 65.761 109.269 67.0811 109.038 68.3828C108.942 68.9265 108.423 69.2899 107.879 69.1934C107.335 69.0966 106.973 68.5768 107.069 68.0332C107.293 66.7721 107.481 65.493 107.63 64.1963C107.775 62.937 107.946 61.6937 108.144 60.4678Z" fill="#F5B87B"/>
<path d="M116.849 35.7217C117.128 35.2454 117.741 35.0862 118.218 35.3652C118.694 35.6444 118.854 36.2562 118.575 36.7324C117.355 38.8149 116.243 40.9862 115.244 43.2432C115.02 43.7478 114.43 43.9763 113.925 43.7529C113.42 43.5294 113.193 42.9384 113.416 42.4336C114.445 40.1082 115.591 37.8696 116.849 35.7217Z" fill="#F5B87B"/>
<path d="M134.375 16.1992C134.817 15.869 135.444 15.9595 135.774 16.4014C136.105 16.8435 136.015 17.471 135.573 17.8018C133.608 19.272 131.734 20.8371 129.961 22.4971C129.558 22.8743 128.925 22.854 128.548 22.4512C128.17 22.048 128.192 21.4145 128.595 21.0371C130.423 19.326 132.352 17.7126 134.375 16.1992Z" fill="#F5B87B"/>
<path d="M157.774 4.36328C158.3 4.19562 158.863 4.48587 159.031 5.01172C159.199 5.53783 158.908 6.10161 158.382 6.26953C156.017 7.02437 153.717 7.86708 151.487 8.79688C150.978 9.00911 150.392 8.7682 150.18 8.25879C149.967 7.74917 150.208 7.16382 150.718 6.95117C153.002 5.99857 155.356 5.13513 157.774 4.36328Z" fill="#F5B87B"/>
<path d="M180.005 2.00391C178.773 2.1147 177.552 2.24449 176.342 2.39355C175.794 2.46109 175.294 2.07154 175.227 1.52344C175.159 0.975481 175.549 0.475909 176.097 0.408203C177.329 0.256412 178.573 0.124461 179.826 0.0117188L180.005 2.00391Z" fill="#F5B87B"/>
</svg>
