<svg width="114" height="34" viewBox="0 0 114 34" fill="none" xmlns="http://www.w3.org/2000/svg">
<path d="M32.0645 31.4717C32.1777 30.9314 32.7077 30.5844 33.248 30.6973C35.5553 31.1804 37.8819 31.4133 40.1963 31.3916C40.7484 31.3864 41.2006 31.8308 41.2061 32.3828C41.2111 32.9349 40.767 33.3864 40.2148 33.3916C37.7537 33.4146 35.2838 33.1672 32.8389 32.6553C32.2985 32.5421 31.9514 32.0121 32.0645 31.4717Z" fill="#F5B87B"/>
<path d="M108.475 25.2998C108.8 24.8541 109.425 24.757 109.871 25.082C110.974 25.8866 112.065 26.7396 113.141 27.6406L112.499 28.4082L111.856 29.1738C110.814 28.3007 109.759 27.4748 108.693 26.6973C108.247 26.3718 108.149 25.7459 108.475 25.2998Z" fill="#F5B87B"/>
<path d="M62.9736 21.9922C63.4366 21.6914 64.0564 21.8223 64.3574 22.2852C64.6582 22.748 64.5269 23.3668 64.0645 23.668C62.9718 24.3781 61.8897 25.1556 60.8223 26C59.8371 26.7794 58.8276 27.4965 57.7969 28.1514C57.3307 28.4475 56.7122 28.3089 56.416 27.8428C56.1205 27.3767 56.2577 26.7589 56.7236 26.4629C57.6959 25.8452 58.6501 25.1679 59.582 24.4307C60.6965 23.549 61.8281 22.7368 62.9736 21.9922Z" fill="#F5B87B"/>
<path d="M11.0654 18.1885C11.4759 17.8191 12.109 17.8524 12.4785 18.2627C14.0965 20.0602 15.8068 21.6785 17.5889 23.1133C18.019 23.4596 18.0874 24.0894 17.7412 24.5195C17.3949 24.9495 16.7651 25.018 16.335 24.6719C14.4679 23.1687 12.68 21.4766 10.9922 19.6016C10.6227 19.1911 10.655 18.558 11.0654 18.1885Z" fill="#F5B87B"/>
<path d="M82.71 15.7383C85.489 15.6766 88.2766 15.9319 91.0479 16.4873C91.5891 16.596 91.9405 17.1227 91.832 17.6641C91.7234 18.2054 91.1957 18.5568 90.6543 18.4482C88.0216 17.9206 85.3813 17.6791 82.7549 17.7373C82.2029 17.7495 81.7449 17.3126 81.7324 16.7607C81.7202 16.2087 82.1579 15.7507 82.71 15.7383Z" fill="#F5B87B"/>
<path d="M1.88672 0C2.28691 1.1351 2.71268 2.24147 3.16309 3.31738C3.3761 3.82662 3.13602 4.4126 2.62695 4.62598C2.11766 4.83907 1.53172 4.599 1.31836 4.08984C0.852907 2.97799 0.412856 1.83608 0 0.665039L0.942383 0.332031L1.88672 0Z" fill="#F5B87B"/>
</svg>
