<svg width="200" height="198" viewBox="0 0 200 198" fill="none" xmlns="http://www.w3.org/2000/svg">
<path d="M39.3576 22.291C62.5739 1.70524 93.0151 -5.03019 123.736 3.79178C154.014 12.4865 176.833 36.1989 184.141 66.089C188.721 84.8191 186.876 104.233 179.14 122.286C189.705 128.031 197.56 138.463 199.53 151.259C202.881 173.024 187.941 193.382 166.163 196.73C160.325 197.628 152.326 198.164 144.14 197.955C136.422 197.758 124.911 196.839 113.871 192.873C104.314 189.439 80.9196 178.042 78.3496 149.552C76.2411 126.175 90.8699 108.524 100.04 99.0779C104.142 94.8524 105.731 91.4427 106.348 89.3892C106.964 87.3403 106.848 85.9206 106.627 85.0175C106.205 83.2913 104.835 81.3354 101.699 80.4346C98.4516 79.5021 96.6669 79.7214 95.8945 79.8914C95.1411 80.0573 93.9709 80.4747 92.3177 81.9405C88.608 85.2299 82.3315 94.2364 79.2808 112.909C75.7303 134.642 55.2223 149.384 33.4753 145.836C11.7285 142.288 -3.02312 121.793 0.527398 100.06C5.45628 69.8905 17.6328 41.5545 39.3576 22.291Z" fill="#F5B87B"/>
</svg>
