<svg width="140" height="140" viewBox="0 0 140 140" fill="none" xmlns="http://www.w3.org/2000/svg">
<path fill-rule="evenodd" clip-rule="evenodd" d="M70 68.082C71.0592 68.082 71.918 68.9408 71.918 70C71.918 71.0592 71.0592 71.918 70 71.918C68.9408 71.918 68.082 71.0592 68.082 70C68.082 68.9408 68.9408 68.082 70 68.082ZM70 69.041C69.4704 69.041 69.041 69.4704 69.041 70C69.041 70.5296 69.4704 70.959 70 70.959C70.5296 70.959 70.959 70.5296 70.959 70C70.959 69.4704 70.5296 69.041 70 69.041Z" fill="#F5B87B"/>
<path fill-rule="evenodd" clip-rule="evenodd" d="M70 0C72.1183 7.61026e-06 73.8359 15.026 73.8359 33.5615C73.8359 36.3826 73.7946 39.1224 73.7197 41.7402C74.3249 39.1922 74.9964 36.5355 75.7266 33.8105C80.5239 15.9067 86.072 1.8365 88.1182 2.38477C90.1638 2.93445 87.9338 17.8929 83.1367 35.7959C82.4066 38.5207 81.6571 41.1568 80.9072 43.666C82.1512 41.3615 83.487 38.9684 84.8975 36.5254C94.1645 20.4744 103.165 8.32074 105 9.37793C106.835 10.4371 100.81 24.3092 91.542 40.3613C90.1318 42.8038 88.725 45.1556 87.3516 47.3848C89.1493 45.4812 91.0595 43.5167 93.0537 41.5225C106.16 28.4159 118 19.0041 119.498 20.502C120.996 21.9999 111.584 33.8397 98.4775 46.9463C96.4828 48.941 94.5173 50.8503 92.6133 52.6484C94.843 51.2746 97.1955 49.8696 99.6387 48.459C115.69 39.1916 129.562 33.1663 130.622 35C131.68 36.835 119.526 45.8351 103.475 55.1025C101.032 56.513 98.6384 57.8478 96.334 59.0918C98.843 58.3419 101.479 57.5943 104.204 56.8643C122.108 52.0669 137.067 49.8366 137.615 51.8828C138.163 53.929 124.093 59.4761 106.189 64.2734C103.464 65.0036 100.807 65.6741 98.2588 66.2793C100.877 66.2044 103.617 66.1641 106.438 66.1641C124.974 66.1641 140 67.8817 140 70C140 72.1183 124.974 73.8359 106.438 73.8359C103.617 73.8359 100.877 73.7947 98.2588 73.7197C100.807 74.325 103.464 74.9963 106.189 75.7266C124.092 80.5237 138.162 86.0708 137.615 88.1172C137.067 90.1634 122.108 87.9341 104.204 83.1367C101.479 82.4064 98.8418 81.6563 96.332 80.9062C98.6371 82.1506 101.031 83.4866 103.475 84.8975C119.526 94.1649 131.68 103.165 130.622 105C129.563 106.835 115.691 100.809 99.6387 91.541C97.196 90.1308 94.8445 88.7251 92.6152 87.3516C94.519 89.1494 96.4831 91.0593 98.4775 93.0537C111.584 106.16 120.996 118 119.498 119.498C118 120.996 106.16 111.584 93.0537 98.4775C91.0591 96.4829 89.1495 94.5182 87.3516 92.6143C88.7253 94.8438 90.1315 97.1957 91.542 99.6387C100.81 115.691 106.835 129.563 105 130.622C103.165 131.68 94.1647 119.526 84.8975 103.475C83.4863 101.03 82.1508 98.6357 80.9062 96.3301C81.6565 98.8404 82.4062 101.478 83.1367 104.204C87.9337 122.107 90.1636 137.065 88.1182 137.615C86.072 138.163 80.5239 124.093 75.7266 106.189C74.9963 103.464 74.325 100.807 73.7197 98.2588C73.7947 100.877 73.8359 103.617 73.8359 106.438C73.8359 124.974 72.1183 140 70 140C67.8817 140 66.1641 124.974 66.1641 106.438C66.1641 103.617 66.2044 100.877 66.2793 98.2588C65.6741 100.807 65.0046 103.464 64.2744 106.189C59.4771 124.093 53.929 138.163 51.8828 137.615C49.8367 137.067 52.067 122.108 56.8643 104.204C57.5947 101.478 58.3435 98.8403 59.0938 96.3301C57.8492 98.6356 56.5137 101.03 55.1025 103.475C45.8351 119.526 36.8349 131.68 35 130.622C33.1664 129.562 39.1917 115.69 48.459 99.6387C49.8693 97.1959 51.2738 94.8436 52.6475 92.6143C50.8496 94.518 48.9407 96.4831 46.9463 98.4775C33.8398 111.584 22 120.996 20.502 119.498C19.0041 118 28.4158 106.16 41.5225 93.0537C43.5167 91.0595 45.4812 89.1493 47.3848 87.3516C45.1557 88.725 42.8037 90.1309 40.3613 91.541C24.3091 100.809 10.4371 106.835 9.37793 105C8.32018 103.165 20.4741 94.1647 36.5254 84.8975C38.9684 83.487 41.3615 82.1512 43.666 80.9072C41.1569 81.6571 38.5207 82.4066 35.7959 83.1367C17.8921 87.934 2.93303 90.1633 2.38477 88.1172C1.83817 86.0707 15.9077 80.5236 33.8105 75.7266C36.5355 74.9964 39.1922 74.3249 41.7402 73.7197C39.1224 73.7946 36.3826 73.8359 33.5615 73.8359C15.026 73.8359 2.13927e-05 72.1183 0 70C9.25959e-08 67.8817 15.026 66.1641 33.5615 66.1641C36.3825 66.1641 39.1224 66.2044 41.7402 66.2793C39.1923 65.6741 36.5354 65.0036 33.8105 64.2734C15.9074 59.4763 1.83764 53.9292 2.38477 51.8828C2.93303 49.8367 17.8921 52.066 35.7959 56.8633C38.521 57.5935 41.1576 58.3428 43.667 59.0928C41.3623 57.8486 38.9687 56.5132 36.5254 55.1025C20.4738 45.8351 8.31966 36.8349 9.37793 35C10.4373 33.1656 24.3092 39.1913 40.3613 48.459C42.8045 49.8695 45.157 51.2746 47.3867 52.6484C45.4827 50.8503 43.5172 48.941 41.5225 46.9463C28.416 33.8399 19.0044 22.0001 20.502 20.502C21.9999 19.0041 33.8397 28.4158 46.9463 41.5225C48.9405 43.5167 50.8498 45.4812 52.6475 47.3848C51.274 45.1557 49.8691 42.8037 48.459 40.3613C39.1919 24.3103 33.1667 10.4388 35 9.37793C36.835 8.31965 45.836 20.4737 55.1035 36.5254C56.5143 38.969 57.8495 41.363 59.0938 43.668C58.3437 41.1583 57.5945 38.5214 56.8643 35.7959C52.067 17.8923 49.8368 2.93356 51.8828 2.38477C53.929 1.83653 59.4771 15.9067 64.2744 33.8105C65.0045 36.5353 65.6741 39.1923 66.2793 41.7402C66.2044 39.1224 66.1641 36.3825 66.1641 33.5615C66.1641 15.026 67.8817 0 70 0ZM70 76.5273C69.8798 80.1142 68.9715 86.0162 67.4375 93.1455C67.2358 97.2153 67.123 101.711 67.123 106.438C67.123 115.681 67.5515 124.033 68.2402 130.061C68.5853 133.08 68.9924 135.483 69.4326 137.112C69.6302 137.843 69.8241 138.376 70 138.728C70.1759 138.376 70.3698 137.843 70.5674 137.112C71.0076 135.483 71.4147 133.08 71.7598 130.061C72.4485 124.033 72.877 115.681 72.877 106.438C72.877 101.71 72.7632 97.2146 72.5615 93.1445C71.0277 86.0158 70.1202 80.114 70 76.5273ZM68.3096 76.3076C67.2645 79.7417 64.8607 85.2078 61.5342 91.6963C60.2863 95.5746 59.0145 99.8863 57.791 104.452C55.3988 113.38 53.6505 121.559 52.7559 127.559C52.3077 130.565 52.0786 132.991 52.082 134.679C52.0836 135.436 52.134 136.001 52.2129 136.386C52.4737 136.092 52.7988 135.627 53.1787 134.973C54.0256 133.513 55.0404 131.297 56.1553 128.47C58.3805 122.826 60.9554 114.869 63.3477 105.941C64.5713 101.375 65.6249 97.0037 66.4834 93.0205C66.8468 85.7391 67.4976 79.8038 68.3096 76.3076ZM71.6875 76.2988C72.5004 79.7937 73.1519 85.7322 73.5156 93.0195C74.3742 97.003 75.4286 101.374 76.6523 105.941C79.0445 114.869 81.6195 122.826 83.8447 128.47C84.9596 131.297 85.9753 133.513 86.8223 134.973C87.2022 135.628 87.5272 136.092 87.7881 136.386C87.8669 136.001 87.9173 135.436 87.9189 134.679C87.9224 132.991 87.6923 130.565 87.2441 127.559C86.3495 121.559 84.6022 113.38 82.21 104.452C80.9859 99.884 79.7134 95.5703 78.4648 91.6904C75.1368 85.1985 72.7308 79.7314 71.6875 76.2988ZM66.7393 75.6465C64.843 78.6923 61.1045 83.3519 56.209 88.7617C53.9991 92.1858 51.6544 96.023 49.29 100.118C44.6685 108.123 40.8634 115.571 38.4463 121.135C37.2354 123.922 36.3856 126.206 35.9521 127.837C35.7577 128.569 35.6602 129.127 35.6367 129.52C35.9648 129.303 36.399 128.939 36.9355 128.404C38.1314 127.213 39.6847 125.337 41.4932 122.895C45.1033 118.019 49.651 111 54.2725 102.995C56.6364 98.9007 58.7863 94.9515 60.6465 91.3262C62.8841 84.3805 65.0494 78.8119 66.7393 75.6465ZM73.2607 75.6475C74.9505 78.813 77.116 84.381 79.3535 91.3262C81.2138 94.9516 83.3645 98.9006 85.7285 102.995C90.35 111 94.8968 118.019 98.5068 122.895C100.315 125.337 101.87 127.213 103.065 128.404C103.602 128.939 104.036 129.303 104.364 129.52C104.341 129.127 104.242 128.569 104.048 127.837C103.614 126.206 102.765 123.922 101.555 121.135C99.1376 115.571 95.3324 108.123 90.7109 100.118C88.3474 96.0243 86.0032 92.1879 83.7939 88.7646C78.8973 83.3538 75.1575 78.6939 73.2607 75.6475ZM65.3828 74.6162C62.7612 77.0675 57.9467 80.5991 51.8223 84.5547C48.8018 87.2899 45.5434 90.3892 42.2002 93.7324C35.6645 100.268 30.0609 106.477 26.2861 111.226C24.3953 113.604 22.9844 115.59 22.1436 117.054C21.7662 117.711 21.5266 118.225 21.4023 118.598C21.7754 118.473 22.2895 118.234 22.9463 117.856C24.4096 117.016 26.3956 115.605 28.7744 113.714C33.5233 109.939 39.7319 104.335 46.2676 97.7998C49.6106 94.4568 52.7092 91.198 55.4443 88.1777C59.4 82.0531 62.9315 77.2379 65.3828 74.6162ZM74.6162 74.6162C77.068 77.2382 80.6007 82.0548 84.5576 88.1816C87.2921 91.2011 90.3905 94.4579 93.7324 97.7998C100.268 104.335 106.477 109.939 111.226 113.714C113.604 115.605 115.59 117.016 117.054 117.856C117.71 118.234 118.225 118.473 118.598 118.598C118.473 118.225 118.234 117.711 117.856 117.054C117.016 115.59 115.605 113.604 113.714 111.226C109.939 106.477 104.335 100.268 97.7998 93.7324C94.4566 90.3892 91.1982 87.2899 88.1777 84.5547C82.0529 80.5988 77.2377 77.0675 74.6162 74.6162ZM64.3467 73.2637C61.18 74.9531 55.6142 77.1173 48.6729 79.3535C45.0477 81.2136 41.099 83.3648 37.0049 85.7285C29.0005 90.3499 21.9816 94.8968 17.1064 98.5068C14.6641 100.315 12.7866 101.869 11.5957 103.064C11.0613 103.601 10.697 104.036 10.4805 104.364C10.8729 104.341 11.4311 104.242 12.1631 104.048C13.7943 103.614 16.0786 102.765 18.8662 101.554C24.4301 99.1367 31.8776 95.3322 39.8818 90.7109C43.9767 88.3468 47.8134 86.0007 51.2373 83.791C56.6438 78.8986 61.3006 75.1611 64.3467 73.2637ZM75.6484 73.2607C78.6944 75.1573 83.3534 78.896 88.7627 83.791C92.1866 86.0008 96.0233 88.3458 100.118 90.71C108.123 95.3315 115.571 99.1366 121.135 101.554C123.922 102.765 126.206 103.614 127.837 104.048C128.569 104.242 129.128 104.341 129.521 104.364C129.304 104.036 128.939 103.602 128.404 103.064C127.213 101.869 125.337 100.315 122.895 98.5068C118.019 94.8968 111 90.35 102.995 85.7285C98.9007 83.3646 94.9515 81.2137 91.3262 79.3535C84.3815 77.1162 78.8141 74.9505 75.6484 73.2607ZM76.3076 71.6895C79.7414 72.7343 85.2066 75.1387 91.6943 78.4648C95.5732 79.713 99.8854 80.9863 104.452 82.21C113.38 84.6022 121.559 86.3495 127.559 87.2441C130.565 87.6923 132.991 87.9224 134.679 87.9189C135.436 87.9173 136.002 87.867 136.387 87.7881C136.093 87.5271 135.628 87.2025 134.973 86.8223C133.513 85.9753 131.297 84.9596 128.47 83.8447C122.826 81.6195 114.869 79.0446 105.941 76.6523C101.374 75.4286 97.003 74.3742 93.0195 73.5156C85.7384 73.1522 79.8036 72.5014 76.3076 71.6895ZM63.6914 71.6895C60.1951 72.5013 54.2605 73.1523 46.9795 73.5156C42.9963 74.3741 38.6253 75.4287 34.0586 76.6523C25.1307 79.0446 17.1737 81.6195 11.5303 83.8447C8.70284 84.9596 6.48723 85.9753 5.02734 86.8223C4.37251 87.2022 3.90828 87.5272 3.61426 87.7881C3.99936 87.867 4.56412 87.9164 5.32129 87.918C7.00907 87.9215 9.43527 87.6924 12.4414 87.2441C18.4414 86.3495 26.6199 84.6022 35.5479 82.21C40.1142 80.9864 44.4261 79.7129 48.3047 78.4648C54.7922 75.1388 60.2574 72.7346 63.6914 71.6895ZM68.9678 77.8369C68.7052 79.2192 68.4601 80.8928 68.2402 82.8164C68.1486 83.6181 68.0625 84.4612 67.9805 85.3418C68.1292 84.47 68.2638 83.6331 68.3828 82.835C68.6683 80.9199 68.8636 79.2401 68.9678 77.8369ZM71.0322 77.8447C71.1365 79.2464 71.3332 80.9234 71.6182 82.835C71.7366 83.6295 71.8697 84.4624 72.0176 85.3301C71.9359 84.4537 71.851 83.6146 71.7598 82.8164C71.5403 80.8962 71.2943 79.2256 71.0322 77.8447ZM66.9736 77.3047C66.3625 78.5715 65.6932 80.1247 64.9834 81.9248C64.6884 82.6729 64.3881 83.4619 64.082 84.2881C64.45 83.4872 64.7957 82.7163 65.1162 81.9785C65.8871 80.2039 66.51 78.6325 66.9736 77.3047ZM73.0254 77.3047C73.4891 78.6327 74.1137 80.2036 74.8848 81.9785C75.2052 82.7162 75.55 83.4873 75.918 84.2881C75.612 83.462 75.3125 82.6728 75.0176 81.9248C74.3077 80.1244 73.6366 78.5716 73.0254 77.3047ZM65.1855 76.2744C64.2676 77.3397 63.2195 78.6652 62.0684 80.2197C61.5882 80.8682 61.0904 81.5538 60.5791 82.2754C61.1438 81.5947 61.6795 80.9383 62.1816 80.3066C63.3853 78.7924 64.3941 77.4368 65.1855 76.2744ZM74.8105 76.2695C75.6025 77.4331 76.613 78.7902 77.8184 80.3066C78.3203 80.9382 78.8554 81.5949 79.4199 82.2754C78.9089 81.5542 78.4126 80.8679 77.9326 80.2197C76.7797 78.6628 75.7295 77.3357 74.8105 76.2695ZM63.7295 74.8105C62.5661 75.6024 61.2095 76.6132 59.6934 77.8184C59.0617 78.3205 58.4043 78.8552 57.7236 79.4199C58.4453 78.9086 59.1318 78.4118 59.7803 77.9316C61.3368 76.779 62.6635 75.7293 63.7295 74.8105ZM76.2695 74.8105C77.3356 75.7295 78.6629 76.7788 80.2197 77.9316C80.868 78.4117 81.554 78.9088 82.2754 79.4199C81.5949 78.8554 80.9382 78.3203 80.3066 77.8184C78.7902 76.613 77.4331 75.6025 76.2695 74.8105ZM77.3047 73.0254C78.5715 73.6365 80.1237 74.3068 81.9238 75.0166C82.6749 75.3127 83.468 75.6146 84.2979 75.9219C83.4937 75.5523 82.7191 75.2065 81.9785 74.8848C80.2036 74.1138 78.6326 73.4891 77.3047 73.0254ZM62.6953 73.0254C61.3674 73.4891 59.7963 74.1138 58.0215 74.8848C57.2817 75.2061 56.5083 75.5518 55.7051 75.9209C56.534 75.6139 57.3259 75.3124 58.0762 75.0166C59.8763 74.3068 61.4285 73.6365 62.6953 73.0254ZM69.9404 74.2803C69.9686 74.512 69.9878 74.769 70 75.0498C70.0122 74.769 70.0305 74.512 70.0586 74.2803C70.0377 74.2344 70.0205 74.1894 70 74.1484C69.9795 74.1895 69.9614 74.2343 69.9404 74.2803ZM71.0498 74.1514C71.1375 74.3694 71.2236 74.6146 71.3086 74.8848C71.2469 74.6075 71.1981 74.3513 71.165 74.1182C71.1331 74.0795 71.1045 74.0409 71.0742 74.0068C71.0649 74.0522 71.0583 74.101 71.0498 74.1514ZM68.835 74.1182C68.8021 74.3495 68.7533 74.6031 68.6924 74.8779C68.777 74.6095 68.8629 74.3662 68.9502 74.1494C68.9418 74.0997 68.9359 74.0516 68.9268 74.0068C68.8964 74.041 68.867 74.0794 68.835 74.1182ZM67.8066 73.6777C67.7147 73.8933 67.6031 74.1266 67.4727 74.377C67.6243 74.1387 67.7703 73.9248 67.9111 73.7373C67.916 73.6868 67.923 73.6387 67.9258 73.5928C67.8872 73.6182 67.8482 73.6481 67.8066 73.6777ZM72.0879 73.7373C72.2278 73.9235 72.3728 74.1357 72.5234 74.3721C72.3941 74.1236 72.2837 73.8918 72.1924 73.6777C72.1511 73.6483 72.1126 73.6181 72.0742 73.5928C72.077 73.6386 72.0831 73.6869 72.0879 73.7373ZM72.9844 73.0684C73.1689 73.213 73.365 73.3823 73.5732 73.5732C73.3823 73.365 73.213 73.1689 73.0684 72.9844C73.0214 72.9669 72.9768 72.948 72.9336 72.9336C72.948 72.9768 72.9669 73.0214 72.9844 73.0684ZM66.9307 72.9844C66.7866 73.1682 66.6188 73.364 66.4287 73.5713C66.636 73.3813 66.8309 73.2124 67.0146 73.0684C67.0322 73.0213 67.052 72.9769 67.0664 72.9336C67.0229 72.9481 66.9779 72.9667 66.9307 72.9844ZM70.4023 66.9385C70.2697 67.0598 70.1363 67.123 70 67.123C69.8639 67.123 69.7301 67.0605 69.5977 66.9395C69.5011 67.0906 69.3873 67.1864 69.2559 67.2217C69.1244 67.2568 68.9786 67.2302 68.8193 67.1475C68.7652 67.3189 68.6796 67.4406 68.5615 67.5088C68.4435 67.5768 68.2956 67.5896 68.1201 67.5508C68.1121 67.7303 68.0622 67.8695 67.9658 67.9658C67.8695 68.0621 67.7301 68.1121 67.5508 68.1201C67.5895 68.2955 67.5768 68.4436 67.5088 68.5615C67.4405 68.6797 67.3183 68.7642 67.1465 68.8184C67.2297 68.9781 67.257 69.124 67.2217 69.2559C67.1864 69.3873 67.0907 69.5011 66.9395 69.5977C67.0605 69.7301 67.123 69.8639 67.123 70C67.123 70.1363 67.0598 70.2697 66.9385 70.4023C67.0901 70.499 67.1863 70.6125 67.2217 70.7441C67.2569 70.8756 67.2301 71.0214 67.1475 71.1807C67.3191 71.2348 67.4406 71.3204 67.5088 71.4385C67.5769 71.5565 67.5895 71.7045 67.5508 71.8799C67.7301 71.8879 67.8696 71.9379 67.9658 72.0342C68.0621 72.1305 68.1121 72.2699 68.1201 72.4492C68.2957 72.4104 68.4435 72.424 68.5615 72.4922C68.6795 72.5603 68.7642 72.6813 68.8184 72.8525C68.9779 72.7696 69.1242 72.7431 69.2559 72.7783C69.3871 72.8136 69.5002 72.9097 69.5967 73.0605C69.7293 72.9392 69.8637 72.877 70 72.877C70.1361 72.877 70.2699 72.9395 70.4023 73.0605C70.4988 72.9095 70.6129 72.8147 70.7441 72.7793C70.8755 72.7441 71.0216 72.7692 71.1807 72.8516C71.2348 72.6807 71.3208 72.5603 71.4385 72.4922C71.5564 72.4241 71.7046 72.4106 71.8799 72.4492C71.8879 72.2699 71.9379 72.1305 72.0342 72.0342C72.1304 71.9379 72.2699 71.888 72.4492 71.8799C72.4105 71.7045 72.4232 71.5564 72.4912 71.4385C72.5593 71.3206 72.6805 71.2349 72.8516 71.1807C72.7691 71.0216 72.7431 70.8755 72.7783 70.7441C72.8136 70.6127 72.9094 70.4989 73.0605 70.4023C72.9395 70.2699 72.877 70.1361 72.877 70C72.877 69.8637 72.9392 69.7293 73.0605 69.5967C72.9097 69.5002 72.8146 69.3871 72.7793 69.2559C72.744 69.1241 72.7696 68.978 72.8525 68.8184C72.6813 68.7642 72.5603 68.6794 72.4922 68.5615C72.424 68.4435 72.4104 68.2957 72.4492 68.1201C72.2697 68.1121 72.1305 68.0622 72.0342 67.9658C71.9378 67.8695 71.8879 67.7303 71.8799 67.5508C71.7044 67.5895 71.5565 67.5769 71.4385 67.5088C71.3204 67.4406 71.2348 67.319 71.1807 67.1475C71.0214 67.23 70.8756 67.2569 70.7441 67.2217C70.6126 67.1862 70.499 67.0901 70.4023 66.9385ZM33.5615 67.123C24.3186 67.123 15.9666 67.5515 9.93945 68.2402C6.91974 68.5853 4.51706 68.9924 2.8877 69.4326C2.15657 69.6302 1.62405 69.8241 1.27246 70C1.62405 70.1759 2.15657 70.3698 2.8877 70.5674C4.51706 71.0076 6.91974 71.4147 9.93945 71.7598C15.9666 72.4485 24.3186 72.8769 33.5615 72.877C38.2891 72.877 42.7839 72.7632 46.8535 72.5615C53.9824 71.0276 59.8845 70.1203 63.4717 70C59.8845 69.8797 53.9825 68.9715 46.8535 67.4375C42.7839 67.2358 38.2891 67.123 33.5615 67.123ZM106.438 67.123C101.711 67.123 97.2153 67.2358 93.1455 67.4375C86.0162 68.9715 80.1142 69.8798 76.5273 70C80.1142 70.1202 86.0163 71.0276 93.1455 72.5615C97.2154 72.7632 101.71 72.877 106.438 72.877C115.681 72.877 124.033 72.4485 130.061 71.7598C133.08 71.4147 135.483 71.0076 137.112 70.5674C137.844 70.3697 138.377 70.176 138.729 70C138.377 69.824 137.844 69.6303 137.112 69.4326C135.483 68.9924 133.08 68.5853 130.061 68.2402C124.033 67.5515 115.681 67.1231 106.438 67.123ZM73.6768 72.1914C73.8926 72.2834 74.1261 72.3957 74.377 72.5264C74.1391 72.3749 73.9255 72.2295 73.7383 72.0889C73.6876 72.084 73.6389 72.0779 73.5928 72.0752C73.6178 72.1131 73.6478 72.1507 73.6768 72.1914ZM66.2627 72.0879C66.076 72.2281 65.8631 72.3734 65.626 72.5244C65.8753 72.3946 66.1075 72.2829 66.3223 72.1914C66.3516 72.1503 66.383 72.1125 66.4082 72.0742C66.3621 72.077 66.3133 72.083 66.2627 72.0879ZM62.1543 71.0322C60.7529 71.1365 59.076 71.3323 57.165 71.6172C56.3698 71.7358 55.5364 71.8695 54.668 72.0176C55.5451 71.9358 56.3848 71.851 57.1836 71.7598C59.1033 71.5404 60.7736 71.2942 62.1543 71.0322ZM77.8447 71.0322C79.2256 71.2943 80.8962 71.5403 82.8164 71.7598C83.6149 71.851 84.4543 71.9359 85.3311 72.0176C84.463 71.8696 83.6298 71.7357 82.835 71.6172C80.9235 71.3322 79.2463 71.1365 77.8447 71.0322ZM65.8477 71.0498C65.6296 71.1375 65.3845 71.2236 65.1143 71.3086C65.3914 71.2469 65.6477 71.1991 65.8809 71.166C65.92 71.1337 65.9588 71.1048 65.9932 71.0742C65.9475 71.0648 65.8984 71.0583 65.8477 71.0498ZM74.0078 71.0742C74.042 71.1046 74.0803 71.1339 74.1191 71.166C74.352 71.1991 74.6079 71.247 74.8848 71.3086C74.6146 71.2236 74.3694 71.1375 74.1514 71.0498C74.1013 71.0582 74.0529 71.065 74.0078 71.0742ZM65.7188 69.9404C65.4851 69.9688 65.2259 69.9878 64.9424 70C65.2258 70.0122 65.4851 70.0303 65.7188 70.0586C65.7649 70.0375 65.8104 70.0206 65.8516 70C65.8103 69.9793 65.7651 69.9616 65.7188 69.9404ZM74.1494 70C74.1904 70.0205 74.2354 70.0377 74.2812 70.0586C74.5127 70.0305 74.7694 70.0122 75.0498 70C74.7693 69.9878 74.5127 69.9685 74.2812 69.9404C74.2352 69.9614 74.1905 69.9795 74.1494 70ZM54.668 67.9814C55.5364 68.1295 56.3698 68.2642 57.165 68.3828C59.0765 68.6678 60.7537 68.8625 62.1553 68.9668C60.7744 68.7048 59.1037 68.4597 57.1836 68.2402C56.3848 68.1489 55.5451 68.0632 54.668 67.9814ZM85.3311 67.9814C84.4543 68.0632 83.6149 68.149 82.8164 68.2402C80.8959 68.4597 79.2248 68.7047 77.8438 68.9668C79.2456 68.8625 80.923 68.6679 82.835 68.3828C83.6299 68.2643 84.463 68.1294 85.3311 67.9814ZM65.1143 68.6904C65.3844 68.7754 65.6296 68.8616 65.8477 68.9492C65.8984 68.9407 65.9475 68.9351 65.9932 68.9258C65.9588 68.8952 65.92 68.8663 65.8809 68.834C65.6477 68.8009 65.3915 68.7521 65.1143 68.6904ZM74.8848 68.6904C74.6079 68.752 74.3521 68.7999 74.1191 68.833C74.0801 68.8653 74.0422 68.8953 74.0078 68.9258C74.0528 68.935 74.1014 68.9408 74.1514 68.9492C74.3694 68.8615 74.6146 68.7754 74.8848 68.6904ZM5.32129 52.082C4.56404 52.0836 3.99936 52.134 3.61426 52.2129C3.90829 52.4737 4.37271 52.7979 5.02734 53.1777C6.48723 54.0247 8.70284 55.0404 11.5303 56.1553C17.1737 58.3805 25.1307 60.9554 34.0586 63.3477C38.6252 64.5713 42.9963 65.6249 46.9795 66.4834C54.2603 66.8467 60.1951 67.4977 63.6914 68.3096C60.2574 67.2644 54.7923 64.8603 48.3047 61.5342C44.4262 60.2862 40.1141 59.0145 35.5479 57.791C26.6199 55.3988 18.4415 53.6505 12.4414 52.7559C9.43529 52.3077 7.00907 52.0785 5.32129 52.082ZM134.679 52.082C132.991 52.0786 130.565 52.3077 127.559 52.7559C121.559 53.6505 113.38 55.3988 104.452 57.791C99.8871 59.0142 95.576 60.2855 91.6982 61.5332C85.2089 64.8603 79.7421 67.2645 76.3076 68.3096C79.8037 67.4977 85.7385 66.8468 93.0195 66.4834C97.003 65.6249 101.374 64.5714 105.941 63.3477C114.869 60.9554 122.826 58.3805 128.47 56.1553C131.297 55.0404 133.513 54.0247 134.973 53.1777C135.628 52.7975 136.093 52.4729 136.387 52.2119C136.002 52.133 135.436 52.0836 134.679 52.082ZM65.626 67.4746C65.8635 67.6259 66.0767 67.7716 66.2637 67.9121C66.3137 67.9169 66.3616 67.9231 66.4072 67.9258C66.3817 67.887 66.351 67.8483 66.3213 67.8066C66.1068 67.7152 65.8749 67.6042 65.626 67.4746ZM74.377 67.4727C74.1269 67.603 73.8941 67.7148 73.6787 67.8066C73.6491 67.8481 73.6192 67.8872 73.5938 67.9258C73.6391 67.9231 73.6866 67.9168 73.7363 67.9121C73.924 67.7711 74.1382 67.6246 74.377 67.4727ZM73.5742 66.4248C73.3652 66.6165 73.1686 66.7866 72.9834 66.9316C72.9658 66.9788 72.948 67.024 72.9336 67.0674C72.9766 67.0531 73.0206 67.034 73.0674 67.0166C73.2125 66.8313 73.3823 66.634 73.5742 66.4248ZM66.4238 66.4238C66.6156 66.6328 66.7855 66.8295 66.9307 67.0146C66.9784 67.0325 67.0236 67.0518 67.0674 67.0664C67.0529 67.0228 67.0334 66.9781 67.0156 66.9307C66.8303 66.7854 66.633 66.6158 66.4238 66.4238ZM55.7012 64.0771C56.5057 64.4469 57.2806 64.7934 58.0215 65.1152C59.7967 65.8864 61.3682 66.5109 62.6963 66.9746C61.4293 66.3634 59.8766 65.6934 58.0762 64.9834C57.3247 64.6871 56.5315 64.3846 55.7012 64.0771ZM84.293 64.0791C83.4649 64.3858 82.6744 64.6878 81.9248 64.9834C80.1247 65.6932 78.5715 66.3625 77.3047 66.9736C78.6326 66.51 80.2037 65.8862 81.9785 65.1152C82.7178 64.7941 83.4903 64.4479 84.293 64.0791ZM129.521 35.6357C129.128 35.6591 128.57 35.7577 127.838 35.9521C126.207 36.3856 123.922 37.2353 121.135 38.4463C115.571 40.8634 108.123 44.6685 100.118 49.29C96.023 51.6544 92.1858 53.9991 88.7617 56.209C83.3518 61.1045 78.6923 64.843 75.6465 66.7393C78.8121 65.0493 84.3809 62.8833 91.3271 60.6455C94.9522 58.7854 98.9011 56.6361 102.995 54.2725C111 49.651 118.019 45.1032 122.895 41.4932C125.337 39.6846 127.214 38.1314 128.405 36.9355C128.94 36.3986 129.304 35.9639 129.521 35.6357ZM10.4805 35.6357C10.697 35.9639 11.0613 36.3988 11.5957 36.9355C12.7866 38.1313 14.6633 39.6847 17.1055 41.4932C21.9807 45.1032 29.0004 49.6501 37.0049 54.2715C41.0989 56.6352 45.0478 58.7854 48.6729 60.6455C55.6155 62.8821 61.1821 65.0468 64.3486 66.7363C61.3026 64.8391 56.6446 61.1021 51.2373 56.209C47.8134 53.9992 43.9767 51.6542 39.8818 49.29C31.8771 44.6685 24.4293 40.8634 18.8652 38.4463C16.0777 37.2354 13.7942 36.3856 12.1631 35.9521C11.4312 35.7577 10.8729 35.6592 10.4805 35.6357ZM67.4746 65.626C67.6042 65.8749 67.7152 66.1068 67.8066 66.3213C67.8483 66.351 67.8871 66.3817 67.9258 66.4072C67.9231 66.3617 67.9169 66.3136 67.9121 66.2637C67.7717 66.0767 67.6259 65.8635 67.4746 65.626ZM72.5215 65.6309C72.3718 65.8656 72.2279 66.0766 72.0889 66.2617C72.084 66.3124 72.0779 66.3611 72.0752 66.4072C72.1132 66.3821 72.1506 66.3513 72.1914 66.3223C72.2823 66.1089 72.3928 65.8783 72.5215 65.6309ZM68.6924 65.1221C68.7532 65.3961 68.8012 65.649 68.834 65.8799C68.8664 65.9191 68.8961 65.9577 68.9268 65.9922C68.9359 65.9473 68.9418 65.8993 68.9502 65.8496C68.8631 65.633 68.7769 65.3902 68.6924 65.1221ZM71.3086 65.1143C71.2236 65.3845 71.1375 65.6296 71.0498 65.8477C71.0583 65.8981 71.0649 65.9468 71.0742 65.9922C71.1048 65.9578 71.1337 65.919 71.166 65.8799C71.1991 65.647 71.247 65.3911 71.3086 65.1143ZM70 64.9502C69.9878 65.231 69.9686 65.488 69.9404 65.7197C69.9613 65.7654 69.9796 65.8098 70 65.8506C70.0206 65.8094 70.0375 65.764 70.0586 65.7178C70.0306 65.4865 70.0122 65.2302 70 64.9502ZM21.4023 21.4023C21.5266 21.7753 21.7664 22.2888 22.1436 22.9453C22.9844 24.4086 24.3951 26.3953 26.2861 28.7744C30.0609 33.5233 35.6645 39.7319 42.2002 46.2676C45.543 49.6104 48.8011 52.7093 51.8213 55.4443C57.9486 59.4017 62.7646 62.9342 65.3857 65.3857C62.9341 62.7644 59.4018 57.9478 55.4443 51.8203C52.7095 48.8003 49.6102 45.5429 46.2676 42.2002C39.7319 35.6645 33.5233 30.0609 28.7744 26.2861C26.3953 24.3951 24.4096 22.9834 22.9463 22.1426C22.2897 21.7653 21.7753 21.5266 21.4023 21.4023ZM118.598 21.4023C118.225 21.5266 117.71 21.7663 117.054 22.1436C115.59 22.9844 113.604 24.3953 111.226 26.2861C106.477 30.0609 100.268 35.6645 93.7324 42.2002C90.3907 45.5419 87.2919 48.7981 84.5576 51.8174C80.5993 57.9464 77.0662 62.7641 74.6143 65.3857C77.2352 62.9344 82.051 59.4024 88.1777 55.4453C91.1982 52.7101 94.4566 49.6108 97.7998 46.2676C104.335 39.7319 109.939 33.5233 113.714 28.7744C115.605 26.3956 117.016 24.4096 117.856 22.9463C118.234 22.2897 118.473 21.7753 118.598 21.4023ZM82.2754 60.5791C81.5539 61.0903 80.8681 61.5882 80.2197 62.0684C78.6652 63.2195 77.3397 64.2676 76.2744 65.1855C77.4368 64.3941 78.7924 63.3853 80.3066 62.1816C80.9383 61.6795 81.5947 61.1438 82.2754 60.5791ZM57.7236 60.5791C58.4045 61.1439 59.0615 61.6794 59.6934 62.1816C61.2074 63.3851 62.5633 64.3932 63.7256 65.1846C62.6604 64.2667 61.3345 63.2193 59.7803 62.0684C59.1317 61.5881 58.4454 61.0905 57.7236 60.5791ZM35.6357 10.4795C35.6591 10.872 35.7585 11.4306 35.9531 12.1631C36.3866 13.7942 37.2355 16.0779 38.4463 18.8652C40.8633 24.4293 44.6686 31.8772 49.29 39.8818C51.6542 43.9766 53.9993 47.8134 56.209 51.2373C61.1012 56.6435 64.8378 61.3006 66.7354 64.3467C65.0456 61.1792 62.8811 55.6119 60.6445 48.6689C58.7849 45.0449 56.6354 41.0975 54.2725 37.0049C49.651 29.0003 45.1042 21.9807 41.4941 17.1055C39.6855 14.663 38.1314 12.7866 36.9355 11.5957C36.3985 11.0609 35.964 10.696 35.6357 10.4795ZM104.364 10.4795C104.036 10.696 103.601 11.061 103.064 11.5957C101.869 12.7867 100.315 14.6642 98.5068 17.1064C94.8968 21.9816 90.3499 29.0005 85.7285 37.0049C83.3648 41.099 81.2136 45.0477 79.3535 48.6729C77.1173 55.6143 74.9531 61.18 73.2637 64.3467C75.1615 61.3 78.9 56.6423 83.7939 51.2344C86.003 47.8113 88.3476 43.9753 90.7109 39.8818C95.3323 31.8774 99.1376 24.4302 101.555 18.8662C102.766 16.0786 103.614 13.7943 104.048 12.1631C104.242 11.4306 104.341 10.872 104.364 10.4795ZM79.4199 57.7227C78.855 58.4035 78.3206 59.0615 77.8184 59.6934C76.6132 61.2095 75.6024 62.5661 74.8105 63.7295C75.7294 62.6635 76.78 61.3369 77.9326 59.7803C78.4129 59.1317 78.9086 58.4444 79.4199 57.7227ZM60.5791 57.7227C61.0907 58.4447 61.5879 59.1314 62.0684 59.7803C63.2192 61.3344 64.2678 62.6594 65.1855 63.7246C64.3942 62.5624 63.385 61.2073 62.1816 59.6934C61.6793 59.0614 61.1441 58.4037 60.5791 57.7227ZM87.7881 3.61328C87.5271 3.90729 87.2025 4.37204 86.8223 5.02734C85.9754 6.48719 84.9606 8.70295 83.8457 11.5303C81.6205 17.1737 79.0446 25.1307 76.6523 34.0586C75.4287 38.6253 74.3741 42.9963 73.5156 46.9795C73.152 54.2666 72.5003 60.2051 71.6875 63.7002C72.731 60.2672 75.1367 54.7995 78.4648 48.3076C79.7132 44.4283 80.9861 40.1153 82.21 35.5479C84.6022 26.6199 86.3495 18.4414 87.2441 12.4414C87.6924 9.43527 87.9225 7.00907 87.9189 5.32129C87.9173 4.5635 87.8671 3.99841 87.7881 3.61328ZM52.2129 3.61328C52.1339 3.99841 52.0836 4.5635 52.082 5.32129C52.0785 7.00907 52.3077 9.4353 52.7559 12.4414C53.6505 18.4415 55.3988 26.6198 57.791 35.5479C59.0144 40.1137 60.2863 44.4254 61.5342 48.3037C64.8605 54.7916 67.2644 60.2572 68.3096 63.6914C67.4975 60.1943 66.8467 54.2578 66.4834 46.9746C65.6251 42.9928 64.5717 38.6232 63.3486 34.0586C60.9564 25.1307 58.3805 17.1737 56.1553 11.5303C55.0404 8.7029 54.0256 6.48721 53.1787 5.02734C52.7985 4.37205 52.4738 3.90732 52.2129 3.61328ZM70 1.27148C69.824 1.62307 69.6303 2.15606 69.4326 2.8877C68.9924 4.51706 68.5853 6.91974 68.2402 9.93945C67.5515 15.9666 67.123 24.3186 67.123 33.5615C67.123 38.2891 67.2358 42.7839 67.4375 46.8535C68.9713 53.9816 69.8795 59.8834 70 63.4707C70.1205 59.8836 71.0279 53.982 72.5615 46.8545C72.7632 42.7846 72.877 38.2895 72.877 33.5615C72.877 24.3186 72.4485 15.9666 71.7598 9.93945C71.4147 6.91974 71.0076 4.51706 70.5674 2.8877C70.3697 2.15606 70.176 1.62307 70 1.27148ZM75.9209 55.7051C75.5518 56.5083 75.2061 57.2818 74.8848 58.0215C74.1138 59.7963 73.4891 61.3674 73.0254 62.6953C73.6366 61.4284 74.3077 59.8764 75.0176 58.0762C75.3134 57.3259 75.6139 56.5339 75.9209 55.7051ZM64.0781 55.7012C64.3856 56.5314 64.6871 57.3248 64.9834 58.0762C65.6925 59.8745 66.362 61.4253 66.9727 62.6914C66.5091 61.3643 65.8864 59.7945 65.1162 58.0215C64.7944 57.2806 64.4478 56.5057 64.0781 55.7012ZM67.9805 54.6582C68.0625 55.5388 68.1486 56.3819 68.2402 57.1836C68.46 59.1068 68.7052 60.78 68.9678 62.1621C68.8636 60.7591 68.6683 59.0796 68.3828 57.165C68.2638 56.3669 68.1292 55.5301 67.9805 54.6582ZM72.0176 54.6689C71.8696 55.537 71.7367 56.3702 71.6182 57.165C71.3332 59.0761 71.1365 60.7529 71.0322 62.1543C71.2942 60.7736 71.5404 59.1033 71.7598 57.1836C71.851 56.3851 71.9359 55.5457 72.0176 54.6689Z" fill="#F5B87B"/>
</svg>
