<svg width="314" height="92" viewBox="0 0 314 92" fill="none" xmlns="http://www.w3.org/2000/svg">
<path d="M81.3271 88.9198C81.8734 88.8405 82.3812 89.2193 82.4609 89.7655C82.5404 90.3119 82.1616 90.8196 81.6152 90.8993C79.0311 91.2755 76.4371 91.5524 73.833 91.7284C73.282 91.7656 72.8048 91.3488 72.7676 90.7977C72.7308 90.247 73.1475 89.7705 73.6982 89.7333C76.2505 89.5607 78.7934 89.2887 81.3271 88.9198Z" fill="#F5B87B"/>
<path d="M45.7969 88.7196C45.9058 88.1786 46.4324 87.827 46.9736 87.9354C49.5121 88.4441 52.0381 88.8562 54.5527 89.1718C55.1005 89.2405 55.4892 89.7403 55.4209 90.288C55.3521 90.8359 54.8517 91.2249 54.3037 91.1561C51.7402 90.8345 49.1656 90.4155 46.5801 89.8973C46.0388 89.7886 45.6884 89.261 45.7969 88.7196Z" fill="#F5B87B"/>
<path d="M107.161 81.7323C107.672 81.5227 108.257 81.7668 108.467 82.2772C108.677 82.788 108.432 83.373 107.921 83.5829C105.488 84.582 103.049 85.4946 100.602 86.3192C100.078 86.4955 99.5115 86.2144 99.335 85.6913C99.1589 85.168 99.4397 84.6 99.9629 84.4237C102.368 83.6133 104.767 82.7156 107.161 81.7323Z" fill="#F5B87B"/>
<path d="M20.1094 80.1776C20.3338 79.6734 20.9253 79.4459 21.4297 79.6698C23.8105 80.7278 26.1793 81.7018 28.5361 82.5927C29.0525 82.7878 29.3129 83.3653 29.1182 83.8817C28.9229 84.3983 28.3457 84.659 27.8291 84.4637C25.4359 83.5592 23.0317 82.5709 20.6172 81.4979C20.1128 81.2735 19.8852 80.6822 20.1094 80.1776Z" fill="#F5B87B"/>
<path d="M130.92 69.1112C131.383 68.8105 132.003 68.9418 132.304 69.4042C132.605 69.867 132.473 70.4867 132.011 70.788C129.806 72.2218 127.597 73.5868 125.385 74.8817C124.908 75.1606 124.296 75.0008 124.017 74.5243C123.738 74.0477 123.898 73.435 124.375 73.1561C126.559 71.8777 128.741 70.5285 130.92 69.1112Z" fill="#F5B87B"/>
<path d="M1.0625 68.7352C2.16789 69.429 3.27121 70.1051 4.37109 70.7635C4.84466 71.0472 4.99819 71.6609 4.71484 72.1346C4.43118 72.6085 3.81759 72.763 3.34375 72.4794C2.23168 71.8136 1.11705 71.1297 0 70.4286L1.0625 68.7352Z" fill="#F5B87B"/>
<path d="M310.902 65.0028C311.421 64.8138 311.995 65.0811 312.185 65.5995C312.624 66.804 313.055 68.0237 313.478 69.2577L311.585 69.9052C311.167 68.6838 310.741 67.4767 310.306 66.285C310.117 65.7663 310.384 65.1921 310.902 65.0028Z" fill="#F5B87B"/>
<path d="M152.447 52.8505C152.866 52.491 153.498 52.5392 153.857 52.9579C154.217 53.3769 154.169 54.0083 153.75 54.368C151.755 56.0804 149.758 57.7385 147.76 59.3417C147.329 59.6871 146.7 59.6181 146.354 59.1874C146.009 58.7566 146.078 58.1276 146.509 57.7821C148.489 56.1934 150.469 54.5489 152.447 52.8505Z" fill="#F5B87B"/>
<path d="M299.535 40.7469C300.013 40.4708 300.625 40.6336 300.901 41.1112C302.165 43.2961 303.388 45.5616 304.571 47.9042C304.82 48.397 304.623 48.9989 304.13 49.2479C303.637 49.4969 303.035 49.2985 302.786 48.8055C301.62 46.4955 300.414 44.2641 299.17 42.1132C298.894 41.6351 299.057 41.0233 299.535 40.7469Z" fill="#F5B87B"/>
<path d="M172.138 34.2577C172.533 33.8728 173.166 33.8812 173.552 34.2762C173.937 34.6717 173.928 35.3049 173.533 35.6903C172.622 36.5781 171.709 37.4842 170.796 38.4091C169.875 39.3413 168.954 40.2637 168.033 41.1737C167.64 41.5615 167.007 41.5576 166.619 41.1649C166.231 40.7721 166.235 40.139 166.628 39.7509C167.543 38.8466 168.458 37.9304 169.373 37.0038C170.295 36.07 171.218 35.1545 172.138 34.2577Z" fill="#F5B87B"/>
<path d="M283.239 19.5526C283.629 19.1621 284.263 19.1618 284.653 19.5516C286.445 21.3404 288.191 23.2445 289.888 25.2616C290.243 25.6841 290.188 26.3152 289.766 26.6708C289.343 27.0263 288.712 26.9723 288.356 26.5497C286.696 24.575 284.989 22.7128 283.24 20.9667C282.85 20.5764 282.849 19.9433 283.239 19.5526Z" fill="#F5B87B"/>
<path d="M192.812 17.0048C193.266 16.6902 193.889 16.8027 194.204 17.2557C194.519 17.7093 194.407 18.3333 193.953 18.6483C191.919 20.0608 189.872 21.5668 187.816 23.1678C187.381 23.5072 186.751 23.4297 186.412 22.994C186.073 22.5583 186.151 21.929 186.587 21.5897C188.671 19.9669 190.747 18.439 192.812 17.0048Z" fill="#F5B87B"/>
<path d="M261.003 4.87195C261.212 4.3613 261.797 4.11694 262.308 4.32605C264.692 5.30248 267.028 6.43964 269.312 7.73425C269.792 8.00661 269.96 8.6172 269.688 9.09753C269.415 9.57785 268.806 9.74656 268.325 9.47449C266.113 8.22058 263.854 7.12012 261.55 6.17663C261.039 5.96727 260.794 5.38298 261.003 4.87195Z" fill="#F5B87B"/>
<path d="M216.695 4.36023C217.214 4.17282 217.788 4.44186 217.976 4.96081C218.163 5.4801 217.894 6.05327 217.375 6.24109C215.058 7.07872 212.719 8.04348 210.359 9.13757C209.858 9.36987 209.264 9.15218 209.031 8.65124C208.799 8.15037 209.017 7.55547 209.518 7.32312C211.928 6.20554 214.322 5.21845 216.695 4.36023Z" fill="#F5B87B"/>
<path d="M235.588 0.179564C238.222 -0.0209961 240.821 -0.053064 243.384 0.0809307C243.935 0.1098 244.359 0.580443 244.33 1.13171C244.301 1.68324 243.831 2.10684 243.279 2.078C240.804 1.94855 238.289 1.97949 235.739 2.1737C235.189 2.21559 234.708 1.80249 234.666 1.25183C234.625 0.701535 235.038 0.22148 235.588 0.179564Z" fill="#F5B87B"/>
</svg>
