<svg width="28" height="28" viewBox="0 0 28 28" fill="none" xmlns="http://www.w3.org/2000/svg">
<path d="M8.3279 1.93207L9.05686 1.16663L18.8098 10.9494L12.3037 17.5364L5.79792 10.9294L11.575 5.18897L8.3279 1.93207ZM12.3239 5.94046L7.27002 10.9697H17.3377L12.3239 5.94046ZM19.786 17.3998C19.4826 17.0952 19.3308 16.7208 19.3308 16.2765C19.3308 15.9619 19.4133 15.6514 19.5781 15.3449C19.743 15.0384 19.9163 14.748 20.0981 14.4739C20.2287 14.2902 20.3612 14.1114 20.4958 13.9372C20.6304 13.7629 20.7671 13.584 20.9059 13.4003C21.0445 13.584 21.181 13.7629 21.3156 13.9372C21.4502 14.1114 21.5828 14.2902 21.7136 14.4739C21.8952 14.748 22.0685 15.0384 22.2333 15.3449C22.3983 15.6514 22.4809 15.9619 22.4809 16.2765C22.4809 16.7208 22.329 17.0952 22.0254 17.3998C21.7218 17.7042 21.3486 17.8564 20.9059 17.8564C20.4629 17.8564 20.0896 17.7042 19.786 17.3998ZM3.5 24.5V22.3935H24.5V24.5H3.5Z" fill="#404040"/>
</svg>
